<?xml version="1.0" encoding="UTF-8"?>
<svg width="250px" height="243px" viewBox="0 0 250 243" version="1.1" xmlns="http://www.w3.org/2000/svg" xmlns:xlink="http://www.w3.org/1999/xlink">
    <!-- Generator: Sketch 46.2 (44496) - http://www.bohemiancoding.com/sketch -->
    <title>Page 1</title>
    <desc>Created with Sketch.</desc>
    <defs>
        <polygon id="path-1" points="0 242.083019 249.692308 242.083019 249.692308 0.558441509 0 0.558441509"></polygon>
    </defs>
    <g id="Page-1" stroke="none" stroke-width="1" fill="none" fill-rule="evenodd">
        <g id="Artboard-4" transform="translate(-615.000000, -2147.000000)">
            <g id="Page-1" transform="translate(615.000000, 2147.000000)">
                <g id="Group-7" transform="translate(0.000000, 11.362313)">
                    <path d="M153.812179,37.1618525 C153.812179,57.545426 137.578663,74.3692789 117.136355,74.3692789 L103.253571,74.3692789 C82.810348,74.3692789 65.9000916,57.545426 65.9000916,37.1618525 L65.9000916,37.1600185 C65.9000916,16.7773619 82.810348,0.0938071698 103.253571,0.0938071698 L117.136355,0.0938071698 C137.578663,0.0938071698 153.812179,16.7773619 153.812179,37.1600185 L153.812179,37.1618525 Z" id="Fill-1" fill="#453434"></path>
                    <polyline id="Fill-3" fill="#FFDBC5" points="95.4012821 65.3527868 93.7089744 69.5901566 110.06978 85.4062472 128.301465 68.2128509 123.044139 64.223066"></polyline>
                    <path d="M0,225.783312 C0,222.85906 55.8965201,220.487746 124.84707,220.487746 C193.797619,220.487746 249.692308,222.85906 249.692308,225.783312 C249.692308,228.708482 193.797619,231.078878 124.84707,231.078878 C55.8965201,231.078878 0,228.708482 0,225.783312" id="Fill-5" fill="#21BDDC"></path>
                </g>
                <path d="M88.5448718,147.004913 L87.6163004,227.863392 L82.1620879,227.863392 C79.2454212,227.863392 76.8827839,229.91743 76.8827839,232.835264 L76.8827839,232.835264 C76.8827839,233.454226 76.992674,234.283177 77.1886447,234.283177 L77.1886447,234.283177 L101.614469,234.283177 L101.614469,227.935834 L101.614469,170.700623 C101.614469,165.788355 105.407509,161.805906 110.314103,161.805906 L110.314103,161.805906 C115.224359,161.805906 119.013736,165.788355 119.013736,170.700623 L119.013736,170.700623 L119.013736,234.283177 L141.909341,234.283177 C142.104396,234.283177 142.216117,233.454226 142.216117,232.835264 L142.216117,232.835264 C142.216117,229.91743 139.849817,227.863392 136.934982,227.863392 L136.934982,227.863392 L133.275641,227.863392 L133.144689,146.752743 L88.5448718,147.004913 Z" id="Fill-8"></path>
                <g id="Group-58" transform="translate(0.000000, 0.358540)">
                    <path d="M101.547711,226.185317 L87.4735348,226.185317 L87.4735348,227.749687 L82.1621795,227.734098 C79.2455128,227.734098 76.8828755,229.834902 76.8828755,232.752736 C76.8828755,233.371698 76.9936813,234.245581 77.1887363,234.245581 L101.547711,234.245581 L101.547711,226.185317 Z" id="Fill-10" fill="#454C53"></path>
                    <path d="M136.935165,227.734557 L133.275824,227.734557 L133.28315,226.185775 L119.104579,226.185775 L119.104579,234.24604 L141.909524,234.24604 C142.103663,234.24604 142.217216,233.372157 142.217216,232.753194 C142.217216,229.834443 139.850916,227.734557 136.935165,227.734557" id="Fill-12" fill="#454C53"></path>
                    <path d="M148.918681,42.2223045 C148.918681,63.6163913 128.870147,80.9601725 110.234615,80.9601725 C91.596337,80.9601725 71.5496337,63.6163913 71.5496337,42.2223045 C71.5496337,20.8273008 88.868315,3.48535358 110.234615,3.48535358 C131.6,3.48535358 148.918681,20.8273008 148.918681,42.2223045" id="Fill-14" fill="#FFDBC5"></path>
                    <g id="Group-18" transform="translate(67.765568, 0.000000)" fill="#453434">
                        <path d="M84.3564103,36.2976894 C78.7282051,17.463814 66.6228938,0.558349811 42.4681319,0.558349811 C18.3142857,0.558349811 6.21080586,17.463814 0.580769231,36.2976894 L62.8811355,36.2976894 L65.3225275,23.7882328 L70.2071429,36.2976894 L84.3564103,36.2976894 Z" id="Fill-16"></path>
                    </g>
                    <path d="M110.363645,75.5156887 C100.06511,75.5156887 90.3434982,72.6189453 81.96163,67.6241491 C89.4854396,75.789866 100.066026,80.9598057 110.234524,80.9598057 C120.268407,80.9598057 130.70522,75.9274132 138.208883,67.9469264 C129.954304,72.7418208 120.436905,75.5156887 110.363645,75.5156887" id="Fill-19" fill="#453434"></path>
                    <path d="M91.1717949,54.1663506 C91.1717949,52.3140487 93.5692308,50.8166185 96.5234432,50.8166185 C99.4767399,50.8166185 101.87326,52.3140487 101.87326,54.1663506 C101.87326,56.0140675 99.4767399,57.5142487 96.5234432,57.5142487 C93.5692308,57.5142487 91.1717949,56.0140675 91.1717949,54.1663506" id="Fill-21" fill="#FFB0B0"></path>
                    <path d="M118.594231,54.1663506 C118.594231,52.3140487 120.990751,50.8166185 123.944048,50.8166185 C126.897344,50.8166185 129.295696,52.3140487 129.295696,54.1663506 C129.295696,56.0140675 126.897344,57.5142487 123.944048,57.5142487 C120.990751,57.5142487 118.594231,56.0140675 118.594231,54.1663506" id="Fill-23" fill="#FFB0B0"></path>
                    <path d="M117.947161,65.1208823 C114.330861,70.5356558 106.137637,70.5356558 102.522253,65.1208823" id="Stroke-25" stroke="#FF5347" stroke-width="2" stroke-linecap="round" stroke-linejoin="round"></path>
                    <path d="M121.493498,45.4988615 C121.493498,46.9018426 122.629029,48.0407332 124.031044,48.0407332 C125.433974,48.0407332 126.570421,46.9018426 126.570421,45.4988615 C126.570421,44.0958804 125.433974,42.9569898 124.031044,42.9569898 C122.629029,42.9569898 121.493498,44.0958804 121.493498,45.4988615" id="Fill-27" fill="#453434"></path>
                    <path d="M93.5680403,45.4988615 C93.5680403,46.9018426 94.7044872,48.0407332 96.1065018,48.0407332 C97.5094322,48.0407332 98.6449634,46.9018426 98.6449634,45.4988615 C98.6449634,44.0958804 97.5094322,42.9569898 96.1065018,42.9569898 C94.7044872,42.9569898 93.5680403,44.0958804 93.5680403,45.4988615" id="Fill-29" fill="#453434"></path>
                    <path d="M93.2456044,79.2167162 C92.9076923,79.3405087 92.5697802,79.47072 92.2336996,79.6082672 C92.5468864,79.4863087 92.853663,79.3597653 93.1769231,79.2451426 L93.2456044,79.2167162 Z" id="Fill-31" fill="#FFDBC5"></path>
                    <path d="M129.314011,79.6080838 C128.97793,79.4714536 128.64185,79.3403253 128.302106,79.2165328 L128.371703,79.2458762 C128.693132,79.3604989 129.000824,79.4861253 129.314011,79.6080838" id="Fill-33" fill="#FFDBC5"></path>
                    <path d="M145.450549,105.894265 C148.122711,93.9716762 142.218864,86.1470762 132.381868,81.1119328 C132.395604,81.0770875 132.479853,81.0101479 132.479853,81.0101479 L131.653846,80.6286838 C130.894689,80.2683102 130.113553,79.9308611 129.314103,79.6200045 C129.000916,79.498046 128.693223,79.3660008 128.371795,79.2513781 L128.301282,79.2192838 L127.392857,78.8405706 L127.362637,78.6947706 C127.460623,78.6195781 110.774725,93.8689743 110.774725,93.8689743 C110.774725,93.8689743 94.0879121,78.6186611 94.1849817,78.6938536 L94.1538462,78.8387366 L93.2454212,79.2165328 L93.1767399,79.2458762 C92.8534799,79.3604989 92.5467033,79.4861253 92.2335165,79.6080838 C91.4340659,79.9189404 90.6529304,80.2444687 89.8946886,80.6057592 L89.0677656,80.9624649 C89.0677656,80.9624649 89.1529304,80.9826385 89.1675824,81.0174838 C79.3296703,86.0526272 72.2582418,91.4114649 71.1437729,99.5175781 C70.029304,107.623691 74.246337,113.640005 74.246337,113.640005 L87.7857143,107.167952 L87.2216117,153.229748 L110.6337,153.229748 L110.915751,153.229748 L133.761905,153.229748 L132.915751,111.608891 L133.288462,102.401484 L140.342491,109.214654 L140.467949,109.214654 C140.467949,109.214654 142.778388,117.81502 145.450549,105.894265" id="Fill-35" fill="#00C0CA"></path>
                    <polygon id="Fill-37" fill="#D4DCE0" points="217.108059 237.917174 217.108059 189.335513 30.1080586 189.335513 30.1080586 237.917174 17.8324176 237.917174 17.8324176 169.84783 229.384615 169.84783 229.384615 237.917174"></polygon>
                    <mask id="mask-2" fill="white">
                        <use xlink:href="#path-1"></use>
                    </mask>
                    <g id="Clip-40"></g>
                    <polygon id="Fill-39" fill="#008DA1" mask="url(#mask-2)" points="17.4441392 190.466151 229.910256 190.466151 229.910256 179.73197 17.4441392 179.73197"></polygon>
                    <path d="M217.709982,152.259123 C217.709982,152.259123 220.662363,163.985478 228.904121,163.985478 L228.904121,142.226433 L215.403205,142.226433 L217.709982,152.259123 Z" id="Fill-41" fill="#AFBEC5" mask="url(#mask-2)"></path>
                    <path d="M140.936264,155.063802 L220.662454,155.063802 L220.662454,142.80193 L171.91337,136.869979 C171.91337,136.869979 157.906044,123.936877 144.368498,130.29064 C130.828205,136.645319 140.936264,155.063802 140.936264,155.063802" id="Fill-42" fill="#454C53" mask="url(#mask-2)"></path>
                    <polygon id="Fill-43" fill="#FFDBC5" mask="url(#mask-2)" points="70.7020147 129.809225 75.778022 134.892968 79.1635531 156.924357 59.9831502 156.359496"></polygon>
                    <path d="M18.0695055,117.755966 C28.3039377,104.335947 47.4651099,101.764732 60.8662088,112.01383 C74.2682234,122.262928 76.8369048,141.449842 66.600641,154.868943 C56.3662088,168.288045 37.2041209,170.85926 23.8039377,160.610162 C10.4019231,150.361981 7.83507326,131.175068 18.0695055,117.755966" id="Fill-44" fill="#FFDBC5" mask="url(#mask-2)"></path>
                    <path d="M18.0695055,117.755966 C28.3039377,104.335947 47.4651099,101.764732 60.8662088,112.01383 C42.7315934,130.767928 20.2105311,138.283506 20.2105311,138.283506 C20.2105311,138.283506 37.2041209,170.85926 23.8039377,160.610162 C10.4019231,150.361981 7.83507326,131.175068 18.0695055,117.755966" id="Fill-45" fill="#A76413" mask="url(#mask-2)"></path>
                    <path d="M51.009707,110.505121 C64.9483516,121.163193 67.6956044,141.70357 57.05,155.66094 C52.8228938,161.203174 47.0371795,164.971049 40.7285714,166.841691 C50.4501832,167.346031 60.2478022,163.201276 66.6003663,154.868668 C76.83663,141.449566 74.2679487,122.262653 60.8668498,112.013555 C55.259707,107.726668 48.6452381,105.69097 42.0957875,105.745989 C45.2395604,106.822525 48.2532967,108.396065 51.009707,110.505121" id="Fill-46" fill="#453434" mask="url(#mask-2)"></path>
                    <path d="M38.0604396,155.658372 C36.7454212,154.652444 36.981685,152.127078 38.5897436,150.018938 C40.1978022,147.910799 42.5677656,147.018576 43.8818681,148.024505 C45.1987179,149.030433 44.9624542,151.553965 43.3543956,153.662105 C41.746337,155.771161 39.3763736,156.665218 38.0604396,155.658372" id="Fill-47" fill="#FFB0B0" mask="url(#mask-2)"></path>
                    <path d="M33.7106227,149.135702 C33.7948718,149.220065 33.8772894,149.307178 33.9734432,149.381453 C35.1199634,150.258087 36.7582418,150.038012 37.6346154,148.889951 C38.510989,147.740974 38.2912088,146.099578 37.1446886,145.222944 C37.0485348,145.148668 36.9423077,145.093649 36.8388278,145.034963 L33.7106227,149.135702 Z" id="Fill-48" fill="#453434" mask="url(#mask-2)"></path>
                    <path d="M75.6630037,134.634104 C75.6630037,134.634104 101.614469,117.946882 144.654762,129.808949 L144.654762,154.146546 L76.6254579,154.146546 C76.6254579,154.146546 72.9835165,143.10701 75.6630037,134.634104" id="Fill-49" fill="#FFDBC5" mask="url(#mask-2)"></path>
                    <polygon id="Fill-50" fill="#453434" mask="url(#mask-2)" points="144.65467 141.954731 144.65467 146.191184 100.228846 140.259233"></polygon>
                    <path d="M152.99478,147.014266 C152.99478,147.014266 172.668773,143.142772 174.785073,155.063527 L151.09185,155.063527 L152.99478,147.014266 Z" id="Fill-51" fill="#FFDBC5" mask="url(#mask-2)"></path>
                    <polyline id="Fill-52" fill="#FFDBC5" mask="url(#mask-2)" points="97.2279304 141.271489 156.526465 147.073228 155.74533 154.146821 103.445879 154.146821"></polyline>
                    <path d="M239.315018,161.94116 C239.315018,166.75256 235.421245,170.652481 230.615385,170.652481 L18.1620879,170.652481 C13.3571429,170.652481 9.46245421,166.75256 9.46245421,161.94116 C9.46245421,157.12976 13.3571429,153.22984 18.1620879,153.22984 L230.615385,153.22984 C235.421245,153.22984 239.315018,157.12976 239.315018,161.94116" id="Fill-53" fill="#00C0CA" mask="url(#mask-2)"></path>
                    <path d="M134.0413,145.066598 L134.814194,142.525644 L136.164011,138.078285 L142.776648,116.331161 C142.481777,116.9813 143.892949,111.98467 143.57793,112.668738 L131.733608,105.068798 L121.916758,138.059029 L124.438736,138.829293 L123.516575,141.859915 C122.556868,145.018915 123.887454,148.221931 127.040385,149.182927 C130.196062,150.14484 133.082509,148.225598 134.0413,145.066598" id="Fill-54" fill="#000000" mask="url(#mask-2)"></path>
                    <path d="M134.957051,142.315655 L135.729945,139.7747 L137.079762,135.327342 L143.692399,113.580217 C143.397527,114.230357 144.8087,109.233727 144.493681,109.917795 L132.649359,102.317855 L122.832509,135.308085 L125.354487,136.078349 L124.432326,139.108972 C123.472619,142.267972 124.803205,145.470987 127.956136,146.431983 C131.111813,147.393897 133.99826,145.474655 134.957051,142.315655" id="Fill-55" fill="#FFDBC5" mask="url(#mask-2)"></path>
                    <path d="M108.892949,143.588975 L106.865476,141.873303 L103.320604,138.872941 L85.9790293,124.20216 C86.5788462,124.587292 75.7235348,114.436311 76.3599817,114.839783 L89.1466117,108.740941 L115.276648,131.113447 L113.575183,133.128971 L115.992766,135.174756 C118.511996,137.30582 119.131044,140.718824 117.001923,143.240522 C114.873718,145.76222 111.410348,145.719122 108.892949,143.588975" id="Fill-56" fill="#000000" mask="url(#mask-2)"></path>
                    <path d="M107.061447,142.671994 L105.033974,140.956322 L101.489103,137.95596 L84.1475275,123.285179 C84.7473443,123.670311 73.892033,113.51933 74.5284799,113.922802 L87.3151099,107.82396 L113.445147,130.196466 L111.743681,132.21199 L114.161264,134.257775 C116.680495,136.388839 117.299542,139.801843 115.170421,142.323541 C113.042216,144.845239 109.578846,144.802141 107.061447,142.671994" id="Fill-57" fill="#FFDBC5" mask="url(#mask-2)"></path>
                </g>
            </g>
        </g>
    </g>
</svg>