<?xml version="1.0" encoding="UTF-8"?>
<svg width="242px" height="210px" viewBox="0 0 242 210" version="1.1" xmlns="http://www.w3.org/2000/svg" xmlns:xlink="http://www.w3.org/1999/xlink">
    <!-- Generator: Sketch 46.2 (44496) - http://www.bohemiancoding.com/sketch -->
    <title>Page 1</title>
    <desc>Created with Sketch.</desc>
    <defs>
        <polygon id="path-1" points="0 208.846154 241.880568 208.846154 241.880568 0.0684615385 0 0.0684615385"></polygon>
    </defs>
    <g id="Page-1" stroke="none" stroke-width="1" fill="none" fill-rule="evenodd">
        <g id="Artboard-4" transform="translate(-320.000000, -1908.000000)">
            <g id="Page-1" transform="translate(320.000000, 1908.000000)">
                <g id="Group-87" transform="translate(0.000000, 0.316154)">
                    <path d="M65.6134025,195.836808 C82.8622504,201.991423 65.6134025,208.907962 55.1164747,208.845654 C48.8326805,208.808731 35.6594854,207.307192 21.0665515,206.537962 C6.47361751,205.768731 3.40142089,198.461038 9.17139017,195.132962 C14.9413594,191.804885 32.2032642,196.922577 41.7700845,195.132962 C51.3365207,193.343346 62.4636329,194.712962 65.6134025,195.836808 Z" id="Fill-1" fill="#FFE8DF"></path>
                    <mask id="mask-2" fill="white">
                        <use xlink:href="#path-1"></use>
                    </mask>
                    <g id="Clip-4"></g>
                    <polygon id="Fill-3" fill="#FFC58A" mask="url(#mask-2)" points="68.3014593 124.230385 232.279954 124.230385 232.279954 19.9996154 68.3014593 19.9996154"></polygon>
                    <polygon id="Fill-6" fill="#41744F" mask="url(#mask-2)" points="74.8298771 117.691923 225.751536 117.691923 225.751536 26.5380769 74.8298771 26.5380769"></polygon>
                    <path d="M225.696889,26.5376538 C225.696889,26.5376538 225.76371,26.4003462 225.896966,26.1761154 C226.029071,25.9507308 226.228379,25.6395769 226.48222,25.2807308 C226.9899,24.5638077 227.73798,23.6784231 228.554032,22.8603462 C229.369316,22.0426538 230.252573,21.2926538 230.969163,20.7841923 C231.327458,20.5303462 231.638902,20.3311154 231.86394,20.1991923 C232.087826,20.0657308 232.225307,19.9991923 232.225307,19.9991923 C232.225307,19.9991923 232.158871,20.1368846 232.025614,20.3611154 C231.893894,20.5868846 231.694969,20.8984231 231.441513,21.2572692 C230.933833,21.9749615 230.184601,22.8591923 229.368548,23.6765 C228.552112,24.4930385 227.668088,25.2422692 226.951882,25.7515 C226.593587,26.0057308 226.282527,26.2049615 226.057873,26.3372692 C225.833986,26.4707308 225.696889,26.5376538 225.696889,26.5376538" id="Fill-8" fill="#FF8D5F" mask="url(#mask-2)"></path>
                    <path d="M225.696889,117.6915 C225.696889,117.6915 225.833986,117.758423 226.057873,117.891885 C226.282527,118.024192 226.593587,118.223808 226.951882,118.477654 C227.668088,118.9865 228.552112,119.736115 229.368548,120.552654 C230.184601,121.369962 230.933833,122.254192 231.441513,122.972269 C231.694969,123.330731 231.893894,123.642654 232.025614,123.868038 C232.158871,124.092269 232.225307,124.229962 232.225307,124.229962 C232.225307,124.229962 232.087826,124.163423 231.86394,124.029962 C231.638902,123.898038 231.327458,123.698808 230.969163,123.444577 C230.252573,122.9365 229.369316,122.1865 228.554032,121.368808 C227.73798,120.551115 226.9899,119.665731 226.48222,118.948808 C226.228379,118.589577 226.029071,118.278038 225.896966,118.053423 C225.76371,117.828808 225.696889,117.6915 225.696889,117.6915" id="Fill-9" fill="#FF8D5F" mask="url(#mask-2)"></path>
                    <path d="M74.7750384,26.5376538 C74.7750384,26.5376538 74.6379416,26.4707308 74.4140553,26.3372692 C74.1890169,26.2049615 73.878341,26.0057308 73.5200461,25.7515 C72.8042243,25.2422692 71.9201997,24.4930385 71.1033794,23.6765 C70.2873272,22.8591923 69.5380952,21.9749615 69.0307988,21.2572692 C68.7769585,20.8984231 68.5780338,20.5868846 68.4463134,20.3611154 C68.3130568,20.1368846 68.2466206,19.9991923 68.2466206,19.9991923 C68.2466206,19.9991923 68.3841014,20.0657308 68.6079877,20.1991923 C68.8334101,20.3311154 69.14447,20.5303462 69.502765,20.7841923 C70.2193548,21.2926538 71.1026114,22.0426538 71.9182796,22.8603462 C72.7335637,23.6784231 73.4816436,24.5638077 73.9900922,25.2807308 C74.2439324,25.6395769 74.4428571,25.9507308 74.5753456,26.1761154 C74.7082181,26.4003462 74.7750384,26.5376538 74.7750384,26.5376538" id="Fill-10" fill="#FF8D5F" mask="url(#mask-2)"></path>
                    <path d="M74.7750384,117.6915 C74.7750384,117.6915 74.7082181,117.828808 74.5753456,118.053423 C74.4428571,118.278038 74.2439324,118.589577 73.9900922,118.948808 C73.4816436,119.665731 72.7335637,120.551115 71.9182796,121.368808 C71.1026114,122.1865 70.2193548,122.9365 69.502765,123.444577 C69.14447,123.698808 68.8334101,123.898038 68.6079877,124.029962 C68.3841014,124.163423 68.2466206,124.229962 68.2466206,124.229962 C68.2466206,124.229962 68.3130568,124.092269 68.4463134,123.868038 C68.5780338,123.642654 68.7769585,123.330731 69.0307988,122.972269 C69.5380952,122.254192 70.2873272,121.369962 71.1033794,120.552654 C71.9201997,119.736115 72.8042243,118.9865 73.5200461,118.477654 C73.878341,118.223808 74.1890169,118.024192 74.4140553,117.891885 C74.6379416,117.758423 74.7750384,117.6915 74.7750384,117.6915" id="Fill-11" fill="#FF8D5F" mask="url(#mask-2)"></path>
                    <polygon id="Fill-12" fill="#FFC58A" mask="url(#mask-2)" points="160.284831 128.0765 139.547504 128.0765 58.0064132 128.0765 57.9330645 128.0765 57.9330645 132.307269 139.547504 132.307269 160.467627 132.307269 160.467627 130.399577 160.467627 132.307269 241.880837 132.307269 241.880837 128.0765"></polygon>
                    <polygon id="Fill-13" fill="#CF7A60" mask="url(#mask-2)" points="160.284831 128.0765 241.825922 128.0765 231.841283 123.845731 160.284831 123.845731 139.547504 123.845731 67.9910522 123.845731 58.0064132 128.0765 139.547504 128.0765"></polygon>
                    <g id="Group-17" mask="url(#mask-2)" fill="#000000">
                        <g transform="translate(186.251920, 116.538462)">
                            <polygon id="Fill-14" points="2.24923195 3.07653846 29.8990015 3.07653846 29.8990015 0.384230769 2.24923195 0.384230769"></polygon>
                            <polygon id="Fill-15" points="2.24923195 4.99961538 29.8990015 4.99961538 29.8990015 3.07653846 2.24923195 3.07653846"></polygon>
                            <polygon id="Fill-16" points="29.8443548 4.99957692 2.19458525 4.99957692 0.32937788 4.99957692 0.32937788 11.5380385 31.8193932 11.5380385 31.8193932 4.99957692"></polygon>
                        </g>
                    </g>
                    <polygon id="Fill-18" fill="#864943" mask="url(#mask-2)" points="188.501152 118.461154 216.150922 118.461154 216.150922 115.768846 188.501152 115.768846"></polygon>
                    <polygon id="Fill-19" fill="#653732" mask="url(#mask-2)" points="188.501152 120.384231 216.150922 120.384231 216.150922 118.461154 188.501152 118.461154"></polygon>
                    <polygon id="Fill-20" fill="#FFFFFF" mask="url(#mask-2)" points="216.096275 120.384192 188.446505 120.384192 186.581298 120.384192 186.581298 126.922654 218.071313 126.922654 218.071313 120.384192"></polygon>
                    <polygon id="Fill-21" fill="#000000" mask="url(#mask-2)" points="90.1908602 126.922692 108.62404 126.922692 108.62404 123.845769 90.1908602 123.845769"></polygon>
                    <polygon id="Fill-22" fill="#FFFFFF" mask="url(#mask-2)" points="90.1908602 125.768846 108.62404 125.768846 108.62404 122.691923 90.1908602 122.691923"></polygon>
                    <polygon id="Fill-23" fill="#000000" mask="url(#mask-2)" points="119.376728 125.768846 137.809908 125.768846 137.809908 122.691923 119.376728 122.691923"></polygon>
                    <polygon id="Fill-24" fill="#FFFFFF" mask="url(#mask-2)" points="119.376728 124.615 137.809908 124.615 137.809908 121.538077 119.376728 121.538077"></polygon>
                    <path d="M51.937788,190.694423 C51.937788,190.694423 48.3360215,195.756346 53.171275,198.824423 C58.0072965,201.8925 62.6697389,201.593269 60.687404,198.299423 C58.7050691,195.004808 56.4919355,192.718269 57.1958525,190.2125 L51.937788,190.694423 Z" id="Fill-25" fill="#FFD2B5" mask="url(#mask-2)"></path>
                    <path d="M53.9771505,193.201577 C53.7509601,193.196192 53.5243856,193.190423 53.2978111,193.185038 C52.7908986,193.2185 52.2797619,193.206192 51.7632488,193.147731 L51.6845238,193.145808 C51.6680108,193.141577 51.6511137,193.136962 51.6342166,193.132731 C51.5666283,193.124269 51.499808,193.118885 51.4322197,193.108885 C51.2198541,193.047731 51.0078725,192.986962 50.7958909,192.925808 C50.2590246,194.413885 50.0604839,196.850038 53.171467,198.824269 C58.0074885,201.892731 62.6695469,201.593115 60.687212,198.299269 C59.2398233,195.8935 57.6745392,194.025808 57.2064132,192.216962 C56.2071813,192.745808 55.1315284,193.076192 53.9771505,193.201577" id="Fill-26" fill="#FFD2B5" mask="url(#mask-2)"></path>
                    <path d="M51.937788,190.694423 C51.937788,190.694423 48.3360215,195.756346 53.171275,198.824423 C58.0072965,201.8925 62.6697389,201.593269 60.687404,198.299423 C58.7050691,195.004808 56.4919355,192.718269 57.1958525,190.2125 L51.937788,190.694423 Z" id="Fill-27" fill="#FFBB9F" mask="url(#mask-2)"></path>
                    <path d="M53.9771505,193.201577 C53.7509601,193.196192 53.5243856,193.190423 53.2978111,193.185038 C52.7908986,193.2185 52.2797619,193.206192 51.7632488,193.147731 L51.6845238,193.145808 C51.6680108,193.141577 51.6511137,193.136962 51.6342166,193.132731 C51.5666283,193.124269 51.499808,193.118885 51.4322197,193.108885 C51.2198541,193.047731 51.0078725,192.986962 50.7958909,192.925808 C50.2590246,194.413885 50.0604839,196.850038 53.171467,198.824269 C58.0074885,201.892731 62.6695469,201.593115 60.687212,198.299269 C59.2398233,195.8935 57.6745392,194.025808 57.2064132,192.216962 C56.2071813,192.745808 55.1315284,193.076192 53.9771505,193.201577" id="Fill-28" fill="#FFD2B5" mask="url(#mask-2)"></path>
                    <path d="M51.1074885,192.179192 C51.1074885,192.179192 49.427765,193.578808 50.381682,197.849962 L50.5621736,203.182269 L51.2495776,203.235731 L51.9630952,199.403038 C51.9630952,199.403038 52.9646313,201.224577 54.7361367,202.642269 C55.9780722,203.635731 57.7054147,204.697654 59.6232335,204.528038 C61.4461982,204.367269 62.3294547,203.528423 62.7104071,202.737269 C63.3448157,201.418808 62.2833717,199.495731 60.5483487,197.864192 C60.5483487,197.864192 61.850192,199.949577 59.9197005,200.693423 C57.1408986,201.763423 54.3148618,198.458038 52.4604071,195.8715 C51.6919739,194.799192 51.1074885,192.179192 51.1074885,192.179192" id="Fill-29" fill="#CF7A60" mask="url(#mask-2)"></path>
                    <path d="M78.1667819,63.5450769 C78.1667819,63.5450769 78.1425883,63.7004615 78.0976575,63.992 C78.0918971,64.0281538 78.0861367,64.0666154 78.0796083,64.1073846 L78.0700077,64.1700769 L78.0653994,64.2000769 L78.0638633,64.1927692 C78.059639,64.1727692 78.0515745,64.1516154 78.0381336,64.1296923 C78.0266129,64.1135385 78.0020353,64.0735385 77.9836022,64.0781538 C77.9766897,64.1193077 77.9674731,64.1639231 77.9555684,64.2123846 C77.9405914,64.2581538 77.9283026,64.3135385 77.9306068,64.3904615 C77.9267665,64.4643077 77.9229263,64.5416154 77.919086,64.6223846 C77.9256144,64.7212308 77.9329109,64.8239231 77.9405914,64.9304615 C77.9448157,65.0366154 77.9763057,65.1812308 77.9932028,65.3131538 C78.0826805,65.8743077 78.2862135,66.6423846 78.5615591,67.6746923 C78.8230799,68.7085385 79.1852151,70.0096923 79.2850614,71.6577692 C79.3000384,72.0743077 79.325384,72.4816154 79.293894,72.9246923 C79.2789171,73.1996923 79.2635561,73.477 79.2481951,73.7550769 C79.2213134,73.8931538 79.1940476,74.0316154 79.1667819,74.1704615 C79.1364439,74.3250769 79.106106,74.4804615 79.075768,74.6362308 C79.0293011,74.8723846 78.9793779,75.1077692 78.9259985,75.3427692 C78.8730031,75.5800769 78.8153994,75.8181538 78.7493472,75.9996923 C78.684063,76.1946923 78.6183948,76.3904615 78.5523425,76.5873846 C77.9939708,78.1496923 77.1491167,79.4612308 76.3330645,80.5731538 C75.5062596,81.6850769 74.6990399,82.6046923 74.0028034,83.502 C73.6610215,83.9462308 73.3349846,84.3843077 73.0557988,84.8223846 L72.8445853,85.1523846 L72.8311444,85.1731538 C72.8530338,85.1143077 72.8334485,85.1643077 72.8365207,85.1543077 L72.8296083,85.1673846 L72.8011905,85.2185385 L72.7451229,85.3216154 L72.6329877,85.5266154 C72.4912826,85.7950769 72.3795315,85.9762308 72.2531874,86.2404615 C71.7570276,87.2258462 71.3634025,88.2504615 71.0803763,89.2666154 C70.7988863,90.2835385 70.6402842,91.2923846 70.6164747,92.2508462 C70.5984255,93.207 70.7174731,94.1108462 70.9766897,94.9081538 C71.2274578,95.7104615 71.6276114,96.3946923 72.0688556,96.952 C72.51202,97.5100769 73.0031874,97.9277692 73.4325269,98.2435385 C73.6510369,98.3962308 73.8488095,98.5354615 74.0323733,98.6366154 C74.2132488,98.7450769 74.3683948,98.8373846 74.5004992,98.8985385 C74.763172,99.0308462 74.902957,99.1016154 74.902957,99.1016154 C74.902957,99.1016154 74.7485791,99.0723846 74.4586406,99.017 C74.3115591,98.9931538 74.1352919,98.9466154 73.9256144,98.8908462 C73.7136329,98.8416154 73.4778418,98.7604615 73.2101767,98.6677692 C72.6821429,98.4716154 72.0400538,98.1843077 71.3706989,97.7077692 C70.7055684,97.2323846 70.0031874,96.5693077 69.4236943,95.6943077 C68.8349846,94.8254615 68.3680108,93.7646923 68.0569508,92.5993077 C67.7508833,91.4339231 67.5934332,90.1689231 67.5796083,88.8650769 C67.5669355,87.5612308 67.684447,86.2150769 67.9367512,84.8646923 C67.9901306,84.5427692 68.0869048,84.1443077 68.1544931,83.832 L68.2059524,83.6039231 L68.231682,83.4896923 L68.2447389,83.4323846 L68.2478111,83.4181538 C68.2543395,83.3993077 68.2378264,83.4400769 68.263172,83.3723846 L68.2727727,83.3396923 L68.4244624,82.8139231 C68.6299155,82.1096923 68.8799155,81.4412308 69.1356759,80.7931538 C69.6495008,79.5127692 70.2021121,78.3423846 70.5803763,77.3185385 C70.9578725,76.2943077 71.1756144,75.4116154 71.1763825,74.7000769 C71.1656298,74.5354615 71.1909754,74.3123846 71.1471966,74.2439231 C71.1345238,74.1946923 71.1245392,74.1477692 71.1183948,74.1023846 C71.1076421,73.9754615 71.0965054,73.8485385 71.0857527,73.7227692 C71.0738479,73.5816154 71.0619432,73.4408462 71.0500384,73.3008462 C71.0554147,73.1346923 71.0423579,73.512 71.0427419,73.4716154 L71.0400538,73.4662308 L71.0354455,73.4550769 L71.0262289,73.4327692 L71.0085637,73.3893077 L70.9759217,73.3031538 C70.9463518,73.1954615 70.8745392,73.0666154 70.8292243,72.9516154 C70.6160906,72.4758462 70.2539555,71.8658462 69.8349846,71.1646923 C69.4144777,70.4631538 68.9309908,69.6612308 68.5012673,68.7954615 C68.3937404,68.5689231 68.2889017,68.3716154 68.1902074,68.1385385 C68.0926651,67.9062308 67.9985791,67.6827692 67.9083333,67.4677692 C67.8215438,67.2381538 67.7424347,67.0023846 67.6671659,66.7835385 C67.5892089,66.5693077 67.5246928,66.3423846 67.4686252,66.1185385 C67.4129416,65.8973846 67.3599462,65.6877692 67.310023,65.4908462 C67.263172,65.2543077 67.2259217,64.9866154 67.1951997,64.7600769 C67.152573,64.3916154 67.1164747,64.0785385 67.0872888,63.8246923 C67.0508065,63.532 67.0312212,63.3758462 67.0312212,63.3758462 L78.1667819,63.5450769 Z" id="Fill-30" fill="#653732" mask="url(#mask-2)"></path>
                    <path d="M39.6435484,70.7645 C39.6435484,70.7645 39.6508449,70.9021923 39.6639017,71.1602692 C39.6704301,71.2895 39.6784946,71.4487308 39.6880952,71.6360385 C39.6984639,71.8075769 39.7092166,71.9921923 39.7211214,72.1891154 C39.7326421,72.4310385 39.7403226,72.6879615 39.7410906,72.9583462 C39.7418587,73.2287308 39.7364823,73.5125769 39.7226575,73.8064231 C39.6930876,74.0452692 39.6558372,74.2810385 39.6155146,74.5325769 C39.574808,74.7825769 39.528725,75.0410385 39.4776498,75.3064231 C39.4204301,75.5652692 39.3397849,75.8114231 39.2633641,76.0748846 C39.1834869,76.3333462 39.1036098,76.6083462 39.0083717,76.8691154 C38.9046851,77.1145 38.7979263,77.3671923 38.6880952,77.6260385 C38.4718894,78.1641154 38.2019201,78.6006538 37.9331029,79.1029615 C37.3812596,80.0195 36.7529954,80.9183462 36.1251152,81.6945 C35.5003072,82.4895 34.8524578,83.2441154 34.2894777,83.9425769 C33.7218894,84.6468077 33.214977,85.3202692 32.8417051,85.9460385 C32.7641321,86.0956538 32.6804147,86.2483462 32.590937,86.4048846 L32.5824885,86.4195 C32.5959293,86.3329615 32.5467742,86.6237308 32.6116743,86.2271923 L32.6078341,86.2395 L32.5932412,86.2887308 L32.5636713,86.3871923 L32.5049155,86.5837308 L32.387404,86.9783462 L32.2691244,87.3733462 C32.2572197,87.4114231 32.2510753,87.4360385 32.2491551,87.4491154 L32.2376344,87.5037308 L32.2122888,87.6133462 C32.1765745,87.7606538 32.1327957,87.9121923 32.0821045,88.0710385 C32.0548387,88.2591154 32.043702,88.4725769 32.0198925,88.6771923 L31.9860983,88.9914231 C31.9826421,89.0971923 31.9907066,89.2029615 31.9922427,89.3098846 L32.0045315,89.9606538 C32.0337174,90.1806538 32.0629032,90.3998846 32.0917051,90.6183462 L32.1350998,90.9521923 C32.153149,91.0633462 32.1865591,91.1714231 32.2111367,91.2818077 C32.2645161,91.5041154 32.3175115,91.7256538 32.3701229,91.9456538 C32.4288786,92.1664231 32.5152842,92.3783462 32.5863287,92.5968077 C32.6658218,92.8110385 32.7218894,93.0379615 32.824424,93.2421923 C33.0175883,93.6556538 33.1784946,94.0902692 33.4112135,94.4760385 C33.5202765,94.6756538 33.6285714,94.8733462 33.7353303,95.0683462 C33.8466974,95.2618077 33.9753456,95.4406538 34.0928571,95.6260385 C34.2142089,95.8083462 34.3305684,95.9937308 34.4530722,96.1702692 C34.5844086,96.3406538 34.7134409,96.5083462 34.840553,96.6733462 C34.9703533,96.8371923 35.090553,97.0087308 35.2241935,97.1610385 C35.3597542,97.3121923 35.4930108,97.4610385 35.6239631,97.6064231 C35.7560676,97.7514231 35.8824117,97.8998846 36.0137481,98.0356538 C36.1504608,98.1664231 36.2837174,98.2941154 36.4135177,98.4183462 C36.6731183,98.6714231 36.9238863,98.9114231 37.1804147,99.1087308 C37.4331029,99.3106538 37.6646697,99.5175769 37.8947005,99.6818077 C38.1285714,99.8441154 38.3432412,99.9929615 38.5375576,100.127192 C38.730722,100.268731 38.9127496,100.376808 39.074808,100.465269 C39.2360983,100.557577 39.3728111,100.636423 39.4841782,100.699885 C39.7088326,100.827962 39.8290323,100.896423 39.8290323,100.896423 C39.8290323,100.896423 39.6942396,100.869115 39.4419355,100.817577 C39.3148233,100.791808 39.1573733,100.7595 38.9726575,100.721423 C38.7860215,100.686423 38.5725038,100.6395 38.340937,100.5645 C38.10553,100.494115 37.8443932,100.416808 37.5602151,100.332192 C37.2760369,100.243346 36.9822581,100.116423 36.6569892,99.9948846 C36.3282642,99.8779615 35.9960829,99.7206538 35.6443164,99.5487308 C35.4672811,99.4637308 35.2852535,99.3764231 35.0993856,99.2871923 C34.9162058,99.1914231 34.7364823,99.0821923 34.5475422,98.9756538 C34.3589862,98.8671923 34.1662058,98.7560385 33.9699693,98.6429615 C33.7745008,98.5275769 33.5894009,98.3910385 33.3920123,98.2606538 C33.1957757,98.1271923 32.9960829,97.9914231 32.793702,97.8533462 C32.5974654,97.7064231 32.4050691,97.5487308 32.2049923,97.3914231 C32.0079877,97.2310385 31.7983103,97.0756538 31.6024578,96.9010385 C31.4092934,96.7214231 31.2134409,96.5398846 31.0156682,96.3560385 C30.6047619,95.9971923 30.2487711,95.5668077 29.856682,95.1445 C29.6550691,94.9371923 29.4930108,94.6945 29.3082949,94.4633462 C29.1320276,94.2264231 28.9400154,93.9941154 28.7718126,93.7421923 C28.6086022,93.4829615 28.4446237,93.2225769 28.2798771,92.9606538 C28.199232,92.8275769 28.1109063,92.6975769 28.0360215,92.5587308 L27.8217358,92.1325769 C27.6800307,91.8460385 27.5329493,91.5575769 27.3962366,91.2602692 C27.2806452,90.9502692 27.1646697,90.6395 27.0483103,90.3279615 C26.9926267,90.1698846 26.9307988,90.0129615 26.8804916,89.8514231 L26.7556836,89.3548846 C26.6754224,89.0187308 26.5882488,88.6914231 26.5202765,88.3371923 C26.4730415,87.9514231 26.4327189,87.5587308 26.4004608,87.1618077 C26.3858679,86.9737308 26.3674347,86.7414231 26.3616743,86.5871923 L26.3505376,86.1748846 L26.3397849,85.7633462 L26.3340246,85.5579615 L26.387788,85.4552692 L26.4430876,85.4041154 L26.4430876,85.3914231 L26.4211982,85.1745 L26.3970046,85.1398846 C26.4407834,84.7733462 26.4757296,84.4045 26.5302611,84.0348846 C26.7913978,82.6091154 27.2119048,81.3795 27.6139785,80.2898846 C28.0248848,79.1933462 28.4081413,78.2664231 28.7076805,77.4341154 C29.0264209,76.5956538 29.2652842,75.9164231 29.3839478,75.3441154 C29.4069892,75.0841154 29.5152842,74.8114231 29.5152842,74.6279615 L29.5152842,74.3464231 C29.5152842,74.2652692 29.4169739,74.2014231 29.4054531,74.1352692 C29.3885561,74.0725769 29.356298,74.0060385 29.3355607,73.9575769 C29.3075269,73.9137308 29.2679724,73.8741154 29.2487711,73.8375769 C29.231874,73.8037308 29.2080645,73.7710385 29.1927035,73.7402692 C29.1623656,73.7710385 29.13702,73.8041154 29.1231951,73.8368077 C29.1089862,73.8695 29.1001536,73.9018077 29.0986175,73.9314231 C29.0940092,73.9541154 29.1151306,74.0333462 29.0640553,73.8937308 C28.996851,73.7187308 28.9392473,73.5698846 28.8923963,73.4495 C28.7994624,73.2083462 28.7495392,73.0798846 28.7495392,73.0798846 L39.6435484,70.7645 Z" id="Fill-31" fill="#653732" mask="url(#mask-2)"></path>
                    <path d="M63.4530722,68.8414231 C63.4530722,68.8414231 63.4603687,68.9791154 63.4734255,69.2371923 C63.4799539,69.3664231 63.4880184,69.5256538 63.497619,69.7129615 C63.5079877,69.8845 63.5187404,70.0691154 63.5306452,70.2660385 C63.5421659,70.5079615 63.5498464,70.7648846 63.5506144,71.0352692 C63.5513825,71.3056538 63.5460061,71.5895 63.5321813,71.8833462 C63.5026114,72.1221923 63.465361,72.3579615 63.4250384,72.6095 C63.3843318,72.8595 63.3382488,73.1179615 63.2871736,73.3833462 C63.2299539,73.6421923 63.1493088,73.8883462 63.0728879,74.1518077 C62.9930108,74.4102692 62.9131336,74.6852692 62.8178955,74.9460385 C62.7142089,75.1914231 62.6074501,75.4441154 62.497619,75.7029615 C62.2814132,76.2410385 62.0114439,76.6775769 61.7426267,77.1798846 C61.1907834,78.0964231 60.5625192,78.9952692 59.934639,79.7714231 C59.309831,80.5664231 58.6619816,81.3210385 58.0990015,82.0195 C57.5314132,82.7237308 57.0245008,83.3971923 56.6512289,84.0229615 C56.5736559,84.1725769 56.4899386,84.3252692 56.4004608,84.4818077 L56.3920123,84.4964231 C56.4054531,84.4098846 56.356298,84.7006538 56.4211982,84.3041154 L56.4173579,84.3164231 L56.402765,84.3656538 L56.3731951,84.4641154 L56.3144393,84.6606538 L56.1969278,85.0552692 L56.0786482,85.4502692 C56.0667435,85.4883462 56.0605991,85.5129615 56.058679,85.5260385 L56.0471582,85.5806538 L56.0218126,85.6902692 C55.9860983,85.8375769 55.9423195,85.9891154 55.8916283,86.1479615 C55.8643625,86.3360385 55.8532258,86.5495 55.8294163,86.7541154 L55.7956221,87.0683462 C55.7921659,87.1741154 55.8002304,87.2798846 55.8017665,87.3868077 L55.8140553,88.0375769 C55.8432412,88.2575769 55.872427,88.4768077 55.9012289,88.6952692 L55.9446237,89.0291154 C55.9626728,89.1402692 55.9960829,89.2483462 56.0206605,89.3587308 C56.0740399,89.5810385 56.1270353,89.8025769 56.1796467,90.0225769 C56.2384025,90.2433462 56.324808,90.4552692 56.3958525,90.6737308 C56.4753456,90.8879615 56.5314132,91.1148846 56.6339478,91.3191154 C56.8271121,91.7325769 56.9880184,92.1671923 57.2207373,92.5529615 C57.3298003,92.7525769 57.4380952,92.9502692 57.5448541,93.1452692 C57.6562212,93.3387308 57.7848694,93.5175769 57.902381,93.7029615 C58.0237327,93.8852692 58.1400922,94.0706538 58.262596,94.2471923 C58.3939324,94.4175769 58.5229647,94.5852692 58.6500768,94.7502692 C58.7798771,94.9141154 58.9000768,95.0856538 59.0337174,95.2379615 C59.169278,95.3891154 59.3025346,95.5379615 59.4334869,95.6833462 C59.5655914,95.8283462 59.6919355,95.9768077 59.8232719,96.1125769 C59.9599846,96.2433462 60.0932412,96.3710385 60.2230415,96.4952692 C60.4826421,96.7483462 60.7334101,96.9883462 60.9899386,97.1856538 C61.2426267,97.3875769 61.4741935,97.5945 61.7042243,97.7587308 C61.9380952,97.9206538 62.152765,98.0698846 62.3470814,98.2041154 C62.5402458,98.3456538 62.7222734,98.4533462 62.8843318,98.5421923 C63.0456221,98.6345 63.1823349,98.7133462 63.293702,98.7768077 C63.5183564,98.9048846 63.6385561,98.9733462 63.6385561,98.9733462 C63.6385561,98.9733462 63.5037634,98.9460385 63.2514593,98.8945 C63.1243472,98.8687308 62.9668971,98.8364231 62.7821813,98.7983462 C62.5955453,98.7633462 62.3820276,98.7164231 62.1504608,98.6414231 C61.9150538,98.5714231 61.6539171,98.4937308 61.3697389,98.4095 C61.0855607,98.3206538 60.7917819,98.1929615 60.4665131,98.0718077 C60.137788,97.9548846 59.8056068,97.7971923 59.4538402,97.6256538 C59.2768049,97.5406538 59.0947773,97.4533462 58.9089094,97.3637308 C58.7257296,97.2683462 58.5460061,97.1591154 58.3570661,97.0529615 C58.16851,96.9441154 57.9757296,96.8329615 57.7794931,96.7198846 C57.5840246,96.6045 57.3989247,96.4679615 57.2015361,96.3375769 C57.0052995,96.2041154 56.8056068,96.0683462 56.6032258,95.9302692 C56.4069892,95.7833462 56.2145929,95.6256538 56.0145161,95.4683462 C55.8175115,95.3079615 55.6078341,95.1525769 55.4119816,94.9779615 C55.2188172,94.7983462 55.0229647,94.6168077 54.825192,94.4329615 C54.4142857,94.0741154 54.0582949,93.6437308 53.6662058,93.2214231 C53.4645929,93.0141154 53.3025346,92.7714231 53.1178187,92.5402692 C52.9415515,92.3033462 52.7495392,92.0710385 52.5813364,91.8191154 C52.418126,91.5598846 52.2541475,91.2995 52.0894009,91.0375769 C52.0087558,90.9045 51.9204301,90.7745 51.8455453,90.6356538 L51.6312596,90.2095 C51.4895545,89.9229615 51.3424731,89.6345 51.2057604,89.3371923 C51.090169,89.0271923 50.9741935,88.7164231 50.8578341,88.4048846 C50.8021505,88.2468077 50.7403226,88.0898846 50.6900154,87.9283462 L50.5648233,87.4318077 C50.4845622,87.0956538 50.3977727,86.7683462 50.3298003,86.4141154 C50.2825653,86.0283462 50.2422427,85.6356538 50.2099846,85.2387308 C50.1953917,85.0506538 50.1769585,84.8183462 50.1711982,84.6641154 L50.1600614,84.2518077 L50.1493088,83.8402692 L50.1435484,83.6348846 L50.1973118,83.5321923 L50.2526114,83.4810385 L50.2526114,83.4683462 L50.230722,83.2514231 L50.2065284,83.2168077 C50.2503072,82.8502692 50.2852535,82.4814231 50.3397849,82.1118077 C50.6009217,80.6860385 51.0214286,79.4564231 51.4235023,78.3668077 C51.8344086,77.2702692 52.2176651,76.3433462 52.5172043,75.5110385 C52.8359447,74.6725769 53.074808,73.9933462 53.1934716,73.4210385 C53.2165131,73.1610385 53.324808,72.8883462 53.324808,72.7048846 L53.324808,72.4233462 C53.324808,72.3421923 53.2264977,72.2783462 53.214977,72.2121923 C53.1980799,72.1495 53.1658218,72.0829615 53.1450845,72.0345 C53.1170507,71.9906538 53.0774962,71.9510385 53.0582949,71.9145 C53.0413978,71.8806538 53.0175883,71.8479615 53.0022273,71.8171923 C52.9718894,71.8479615 52.9465438,71.8810385 52.9327189,71.9137308 C52.91851,71.9464231 52.9096774,71.9787308 52.9077573,72.0083462 C52.903533,72.0310385 52.9246544,72.1102692 52.8735791,71.9706538 C52.8063748,71.7956538 52.7487711,71.6468077 52.7019201,71.5264231 C52.6089862,71.2852692 52.559063,71.1568077 52.559063,71.1568077 L63.4530722,68.8414231 Z" id="Fill-32" fill="#653732" mask="url(#mask-2)"></path>
                    <path d="M28.83798,69.7721538 C28.83798,69.7721538 28.8752304,69.9175385 28.9447389,70.1902308 C28.9796851,70.3263846 29.0223118,70.4944615 29.0730031,70.6925385 C29.1148618,70.8548462 29.1594086,71.0298462 29.2070276,71.216 C29.2611751,71.4367692 29.3153226,71.6717692 29.3679339,71.9202308 C29.4205453,72.1686923 29.4712366,72.4302308 29.5188556,72.7033077 C29.5376728,72.9336923 29.5576421,73.1752308 29.5783794,73.4263846 C29.5937404,73.676 29.6094854,73.9356154 29.6259985,74.2048462 C29.6309908,74.471 29.6148618,74.7402308 29.6056452,75.0202308 C29.5914363,75.2979231 29.5856759,75.5898462 29.5549539,75.876 C29.5153994,76.1567692 29.4746928,76.4456154 29.4328341,76.7421538 C29.4101767,76.8890769 29.3871352,77.0379231 29.3637097,77.1886923 C29.3310676,77.331 29.2980415,77.4752308 29.2646313,77.6213846 C29.1943548,77.9098462 29.1225422,78.2052308 29.0491935,78.5071538 C28.7058756,79.6567692 28.2611751,80.8156154 27.7254608,81.8936923 C27.1912826,82.9721538 26.5937404,84.0121538 25.978149,85.0125385 C25.3905914,85.9475385 24.7830645,86.9136923 24.165553,87.8956154 L23.9508833,88.2448462 L23.9240015,88.2886923 L23.9170891,88.2994615 C23.9109447,88.3129231 23.947427,88.2179231 23.9289939,88.2640769 L23.915169,88.2883077 L23.8606375,88.3856154 L23.7515745,88.5798462 C23.6060292,88.8394615 23.4597158,89.0994615 23.3134025,89.3602308 L23.0937404,89.7513846 L22.9048003,90.1052308 L22.5226959,90.8183077 C22.2726959,91.2975385 22.0491935,91.7948462 21.8164747,92.2856154 L21.5184716,93.0163846 L21.368318,93.3836923 L21.2508065,93.7436923 C21.1713134,93.9863846 21.0922043,94.2279231 21.0130952,94.4686923 C20.9570276,94.7071538 20.9009601,94.9444615 20.8452765,95.1798462 C20.775384,95.4221538 20.7550307,95.6513846 20.7243088,95.8844615 L20.6770737,96.2356154 C20.6559524,96.3544615 20.6463518,96.4706154 20.650576,96.5825385 C20.6467358,96.8140769 20.6432796,97.0436923 20.6394393,97.271 C20.6417435,97.5002308 20.6862903,97.7183077 20.7054916,97.9448462 L20.7419739,98.2836923 C20.7630952,98.3940769 20.7957373,98.501 20.821467,98.6102308 C20.8759985,98.8313846 20.9301459,99.0502308 20.9831413,99.2656154 C21.0653226,99.4767692 21.1463518,99.6852308 21.2262289,99.8902308 C21.3076421,100.097923 21.3794547,100.309846 21.49351,100.499462 C21.7108679,100.882923 21.8798387,101.289077 22.134447,101.629846 C22.3779186,101.975231 22.5814516,102.337538 22.837212,102.639077 C23.0864439,102.949462 23.3233871,103.244077 23.5453533,103.521 C24.025,104.048692 24.4512673,104.515231 24.8172427,104.886 C25.572619,105.610615 26.0042627,106.024462 26.0042627,106.024462 C26.0042627,106.024462 25.4685484,105.750231 24.5315284,105.270615 C24.0680108,105.017154 23.5153994,104.686769 22.8744624,104.300615 C22.5649386,104.087154 22.2350614,103.860231 21.8871352,103.621 C21.5307604,103.388692 21.2016513,103.077154 20.8283794,102.781769 C20.447043,102.494846 20.118318,102.108692 19.7396697,101.740615 C19.5457373,101.559846 19.3832949,101.341769 19.2104839,101.123308 C19.0384409,100.901769 18.8633257,100.676769 18.6862903,100.448308 C18.5342166,100.196769 18.3798387,99.9417692 18.2235407,99.6833077 C18.1471198,99.5517692 18.0637865,99.421 17.9915899,99.2840769 C17.9286098,99.1421538 17.8652458,98.9994615 17.8014977,98.856 C17.6801459,98.566 17.5334485,98.2729231 17.4324501,97.9656154 C17.3406682,97.6533077 17.2477343,97.3375385 17.1540323,97.0194615 C16.8541091,95.7402308 16.7035714,94.3456154 16.7788402,93.0202308 L16.7918971,92.5113846 L16.8356759,92.0183077 C16.8671659,91.6871538 16.8982719,91.3548462 16.9297619,91.0217692 C17.0234639,90.376 17.1106375,89.7252308 17.2331413,89.0767692 L17.4286098,88.1048462 L17.5280722,87.6167692 L17.6263825,87.1786923 C17.6920507,86.8871538 17.7569508,86.596 17.822235,86.3056154 L17.8710061,86.0879231 L17.8955837,85.9794615 L17.9017281,85.9521538 C17.8859831,85.9898462 17.9259217,85.886 17.9236175,85.8913846 L17.9270737,85.8771538 L17.9424347,85.8190769 L18.0645545,85.3567692 C18.3852151,84.1963846 18.7012673,83.0544615 19.0065668,81.9490769 C19.2842166,80.9090769 19.4992704,79.9540769 19.6375192,79.1044615 C19.7780722,78.2544615 19.7980415,77.5352308 19.7846006,76.9340769 C19.7692396,76.7940769 19.7542627,76.6567692 19.7392857,76.5229231 C19.7331413,76.4571538 19.7269969,76.3925385 19.7212366,76.3286923 C19.7070276,76.271 19.6928187,76.2144615 19.6793779,76.1583077 C19.6555684,76.0494615 19.6325269,75.9429231 19.6102535,75.8394615 C19.5837558,75.7413846 19.540361,75.6606154 19.5123272,75.5763846 C19.4793011,75.4952308 19.4597158,75.4133077 19.4263057,75.3436923 C19.3855991,75.2779231 19.3495008,75.216 19.3172427,75.1571538 C19.2872888,75.0994615 19.258871,75.0440769 19.2312212,74.9913846 C19.2058756,74.9890769 19.181298,74.9867692 19.1582565,74.9844615 C19.1440476,74.9829231 19.1306068,74.9813846 19.1179339,74.9794615 C19.103341,74.9686923 19.1263825,75.0133077 19.0511137,74.886 C18.946275,74.711 18.8567972,74.5625385 18.7842166,74.4417692 C18.6394393,74.2006154 18.5618664,74.0721538 18.5618664,74.0721538 L28.83798,69.7721538 Z" id="Fill-33" fill="#653732" mask="url(#mask-2)"></path>
                    <path d="M81.9096774,55.3455 C81.9096774,55.3455 81.8167435,55.5143462 81.6431644,55.8301154 C81.6189708,55.8762692 81.6070661,55.8685769 81.5556068,55.9347308 C81.4907066,56.0901154 81.4050691,56.2293462 81.3194316,56.4662692 C81.1389401,56.8931923 80.9334869,57.5220385 80.7222734,58.2889615 C80.5110599,59.0585769 80.2956221,59.9774231 80.0966974,61.0143462 C79.6988479,63.0885769 79.3520737,65.6208846 79.1339478,68.3505 C79.0245008,69.7147308 78.9465438,71.1301154 78.9200461,72.5516538 C78.8927803,73.9701154 78.9112135,75.4128077 79.0214286,76.7408846 C79.075192,77.3908846 79.1635177,78.0397308 79.2514593,78.4720385 C79.3831797,79.0708846 79.60553,79.9666538 79.7660522,80.7531923 C80.0955453,82.3485769 80.3597542,83.9774231 80.4211982,85.6289615 C80.4519201,86.4531923 80.4334869,87.2793462 80.3420891,88.0924231 C80.247235,88.9062692 80.0782642,89.7035769 79.8340246,90.4497308 C79.3547619,91.9543462 78.5502304,93.2016538 77.7142089,94.1597308 C76.8689708,95.1201154 75.9910906,95.8274231 75.199232,96.3978077 C74.402381,96.9624231 73.6892473,97.3985769 73.0886329,97.7297308 C72.4914747,98.0647308 72.0168203,98.3093462 71.6896313,98.4697308 C71.3643625,98.6308846 71.1907834,98.7170385 71.1907834,98.7170385 C71.1907834,98.7170385 71.3321045,98.5847308 71.5974654,98.3366538 C71.8628264,98.0908846 72.2460829,97.7216538 72.7119048,97.2393462 C73.1815668,96.7612692 73.7230415,96.1543462 74.2837174,95.4355 C74.8394009,94.7151154 75.4085253,93.8693462 75.8424731,92.9143462 C76.2721966,91.9574231 76.5540707,90.9058846 76.5605991,89.8105 C76.5821045,88.7174231 76.3509217,87.5731923 75.933871,86.3820385 C75.5241167,85.1935769 74.9319508,83.9620385 74.2541475,82.7124231 C74.0867127,82.3966538 73.9108295,82.0958846 73.7384025,81.7908846 L73.4553763,81.2955 L73.3117512,81.0443462 L73.2760369,80.9816538 C73.2714286,80.9728077 73.2860215,81.0105 73.2748848,80.9831923 L73.2645161,80.9597308 L73.2441628,80.9131923 L73.1619816,80.7251154 C72.730722,79.7189615 72.4830261,78.8651154 72.2491551,78.0089615 C71.8036866,76.3178077 71.5079877,74.7028077 71.2583717,73.1089615 C71.0110599,71.5174231 70.8271121,69.9601154 70.6854071,68.4474231 C70.403533,65.4224231 70.294086,62.5816538 70.3324885,60.0731923 C70.3520737,58.8185769 70.4146697,57.6447308 70.512596,56.5697308 C70.6124424,55.4928077 70.7414747,54.5235769 70.919278,53.6566538 C70.9922427,53.2408846 71.1093702,52.8143462 71.1907834,52.4697308 C71.3125192,52.0443462 71.4565284,51.6208846 71.5575269,51.3301154 C71.6742704,50.9885769 71.7368664,50.8062692 71.7368664,50.8062692 L81.9096774,55.3455 Z" id="Fill-34" fill="#653732" mask="url(#mask-2)"></path>
                    <path d="M66.728149,74.0720385 C66.728149,74.0720385 66.650576,74.2008846 66.5057988,74.4416538 C66.4332181,74.5624231 66.3437404,74.7112692 66.2389017,74.8858846 C66.1636329,75.0131923 66.1866743,74.9689615 66.1720814,74.9797308 C66.1594086,74.9812692 66.1459677,74.9828077 66.1317588,74.9843462 C66.1087174,74.9866538 66.0841398,74.9889615 66.0587942,74.9912692 C66.0315284,75.0443462 66.0027266,75.0993462 65.9731567,75.1570385 C65.9408986,75.2158846 65.9044163,75.2778077 65.8637097,75.3435769 C65.8306836,75.4131923 65.8107143,75.4955 65.7776882,75.5766538 C65.7500384,75.6605 65.7062596,75.7412692 65.6797619,75.8397308 C65.6574885,75.9431923 65.634447,76.0493462 65.6106375,76.1585769 C65.5971966,76.2143462 65.5833717,76.2712692 65.5687788,76.3285769 C65.5630184,76.3924231 65.556874,76.4574231 65.5507296,76.5228077 C65.5357527,76.6566538 65.5207757,76.7939615 65.5054147,76.9339615 C65.4923579,77.5351154 65.5119432,78.2547308 65.6524962,79.1043462 C65.790745,79.9539615 66.0061828,80.9093462 66.2834485,81.9489615 C66.5891321,83.0543462 66.9048003,84.1962692 67.2254608,85.3566538 L67.3475806,85.8193462 L67.3629416,85.8770385 L67.3667819,85.8912692 C67.3640937,85.8862692 67.4040323,85.9897308 67.3882873,85.9524231 L67.3944316,85.9797308 L67.4190092,86.0881923 L67.4677803,86.3058846 C67.5330645,86.5962692 67.5983487,86.8870385 67.6636329,87.1789615 L67.7619432,87.6170385 L67.8617896,88.1047308 L68.056874,89.0766538 C68.1793779,89.7251154 68.2665515,90.3758846 68.3602535,91.0220385 C68.3917435,91.3551154 68.4232335,91.6870385 68.4547235,92.0185769 L68.4981183,92.5112692 L68.5111751,93.0201154 C68.5864439,94.3455 68.4362903,95.7401154 68.1359831,97.0197308 C68.0422811,97.3378077 67.9493472,97.6531923 67.8575653,97.9658846 C67.7565668,98.2728077 67.6098694,98.5658846 67.4885177,98.8558846 C67.4247696,98.9993462 67.3614055,99.1420385 67.2984255,99.2839615 C67.2262289,99.4212692 67.1432796,99.5516538 67.0664747,99.6831923 C66.9105607,99.9416538 66.7561828,100.196654 66.603725,100.448577 C66.4266897,100.676654 66.2515745,100.901654 66.0795315,101.123192 C65.9067204,101.341654 65.744278,101.559731 65.5503456,101.7405 C65.1716974,102.108577 64.8429724,102.494731 64.4616359,102.781654 C64.0883641,103.077423 63.759639,103.388577 63.4028802,103.621269 C63.0553379,103.8605 62.7254608,104.087038 62.415553,104.3005 C61.775,104.686654 61.2223886,105.017038 60.758871,105.270885 C59.821467,105.7505 59.2861367,106.024731 59.2861367,106.024731 C59.2861367,106.024731 59.7177803,105.6105 60.4727727,104.886269 C60.8387481,104.5155 61.2650154,104.048577 61.7446621,103.520885 C61.9670123,103.243962 62.2035714,102.949731 62.4528034,102.638962 C62.7089478,102.337808 62.9120968,101.975115 63.1559524,101.629731 C63.4101767,101.288962 63.5791475,100.882808 63.7965054,100.499346 C63.9109447,100.309731 63.9827573,100.098192 64.0637865,99.8901154 C64.1436636,99.6851154 64.2246928,99.4766538 64.306874,99.2655 C64.3598694,99.0501154 64.4140169,98.8316538 64.4685484,98.6105 C64.4946621,98.5012692 64.5273041,98.3943462 64.5480415,98.2839615 L64.5845238,97.9451154 C64.603725,97.7181923 64.6482719,97.5005 64.650576,97.2708846 C64.6467358,97.0439615 64.6432796,96.8139615 64.6394393,96.5828077 C64.6440476,96.4705 64.634063,96.3547308 64.6133257,96.2355 L64.5657066,95.8843462 C64.5349846,95.6512692 64.5146313,95.4220385 64.4447389,95.1801154 C64.3890553,94.9443462 64.3333717,94.7070385 64.2769201,94.4685769 C64.1981951,94.2281923 64.119086,93.9862692 64.0395929,93.7439615 L63.9216974,93.3835769 L63.7715438,93.0162692 L63.4735407,92.2855 C63.2408218,91.7951154 63.0173195,91.2978077 62.7673195,90.8181923 L62.3852151,90.1051154 L62.196275,89.7516538 L61.9766129,89.3601154 C61.8302995,89.0993462 61.6843702,88.8393462 61.5384409,88.5797308 L61.4293779,88.3855 L61.3748464,88.2881923 L61.3610215,88.2639615 C61.3425883,88.2178077 61.3790707,88.3131923 61.3729263,88.2993462 L61.3660138,88.2885769 L61.3391321,88.2447308 L61.1244624,87.8955 C60.5069508,86.9139615 59.899808,85.9474231 59.3118664,85.0124231 C58.696275,84.0124231 58.0987327,82.9724231 57.5649386,81.8935769 C57.0288402,80.8158846 56.5841398,79.6570385 56.2408218,78.5070385 C56.1674731,78.2055 56.0956605,77.9101154 56.025384,77.6212692 C55.9919739,77.4755 55.9589478,77.3308846 55.9263057,77.1885769 C55.9032642,77.0378077 55.8798387,76.8893462 55.8571813,76.7420385 C55.8153226,76.4455 55.774616,76.1566538 55.7350614,75.8758846 C55.7043395,75.5901154 55.6985791,75.2981923 55.6843702,75.0201154 C55.6751536,74.7405 55.6590246,74.4708846 55.6640169,74.2051154 C55.68053,73.9358846 55.696275,73.6762692 55.7116359,73.4266538 C55.7323733,73.1751154 55.7523425,72.9335769 55.7711598,72.7031923 C55.8187788,72.4301154 55.8698541,72.1685769 55.9220814,71.9205 C55.9746928,71.6720385 56.0288402,71.4366538 56.0829877,71.2158846 C56.1306068,71.0297308 56.1751536,70.8547308 56.2170123,70.6924231 C56.2677035,70.4947308 56.3107143,70.3266538 56.3452765,70.1901154 C56.415169,69.9174231 56.4520353,69.7720385 56.4520353,69.7720385 L66.728149,74.0720385 Z" id="Fill-35" fill="#653732" mask="url(#mask-2)"></path>
                    <path d="M72.1044931,68.3028077 C72.1044931,68.3028077 72.0269201,68.4316538 71.8821429,68.6724231 C71.8095622,68.7931923 71.7200845,68.9420385 71.6152458,69.1166538 C71.539977,69.2439615 71.5630184,69.1997308 71.5484255,69.2105 C71.5357527,69.2120385 71.5223118,69.2135769 71.5081029,69.2151154 C71.4850614,69.2174231 71.4604839,69.2197308 71.4351382,69.2220385 C71.4078725,69.2751154 71.3790707,69.3301154 71.3495008,69.3878077 C71.3172427,69.4466538 71.2807604,69.5085769 71.2400538,69.5743462 C71.2070276,69.6439615 71.1870584,69.7262692 71.1540323,69.8074231 C71.1263825,69.8912692 71.0826037,69.9720385 71.056106,70.0705 C71.0338326,70.1739615 71.0107911,70.2801154 70.9869816,70.3893462 C70.9735407,70.4451154 70.9597158,70.5020385 70.9455069,70.5593462 C70.9393625,70.6231923 70.9332181,70.6881923 70.9270737,70.7535769 C70.9120968,70.8874231 70.8971198,71.0247308 70.8817588,71.1647308 C70.868702,71.7658846 70.8882873,72.4855 71.0288402,73.3351154 C71.1670891,74.1847308 71.3825269,75.1401154 71.6597926,76.1797308 C71.9654762,77.2851154 72.2811444,78.4270385 72.6018049,79.5874231 L72.7239247,80.0501154 L72.7392857,80.1078077 L72.743126,80.1220385 C72.7404378,80.1170385 72.7803763,80.2205 72.7646313,80.1831923 L72.7707757,80.2105 L72.7953533,80.3189615 L72.8441244,80.5366538 C72.9094086,80.8270385 72.9746928,81.1178077 73.039977,81.4097308 L73.1382873,81.8478077 L73.2381336,82.3355 L73.4332181,83.3074231 C73.555722,83.9558846 73.6428955,84.6066538 73.7365975,85.2528077 C73.7680876,85.5858846 73.7995776,85.9178077 73.8310676,86.2493462 L73.8744624,86.7420385 L73.8875192,87.2508846 C73.962788,88.5762692 73.8126344,89.9708846 73.5123272,91.2505 C73.4186252,91.5685769 73.3256912,91.8839615 73.2339094,92.1966538 C73.1329109,92.5035769 72.9862135,92.7966538 72.8648618,93.0866538 C72.8011137,93.2301154 72.7377496,93.3728077 72.6747696,93.5147308 C72.602573,93.6520385 72.5196237,93.7824231 72.4428187,93.9139615 C72.2869048,94.1724231 72.1325269,94.4274231 71.9800691,94.6793462 C71.8030338,94.9074231 71.6279186,95.1324231 71.4558756,95.3539615 C71.2830645,95.5720385 71.1206221,95.7905 70.9266897,95.9712692 C70.5480415,96.3397308 70.2193164,96.7251154 69.83798,97.0124231 C69.4647081,97.3078077 69.1359831,97.6193462 68.7792243,97.8520385 C68.431682,98.0912692 68.1018049,98.3181923 67.7918971,98.5312692 C67.1513441,98.9174231 66.5987327,99.2478077 66.1352151,99.5016538 C65.1978111,99.9812692 64.6624808,100.2555 64.6624808,100.2555 C64.6624808,100.2555 65.0941244,99.8412692 65.8491167,99.1170385 C66.2150922,98.7462692 66.6413594,98.2793462 67.1210061,97.7516538 C67.3433564,97.4747308 67.5799155,97.1801154 67.8291475,96.8697308 C68.0852919,96.5685769 68.2884409,96.2058846 68.5322965,95.8605 C68.7865207,95.5197308 68.9554916,95.1135769 69.1728495,94.7301154 C69.2872888,94.5405 69.3591014,94.3289615 69.4401306,94.1212692 C69.5200077,93.9158846 69.6010369,93.7074231 69.6832181,93.4962692 C69.7362135,93.2808846 69.790361,93.0624231 69.8448925,92.8412692 C69.8706221,92.7320385 69.9036482,92.6251154 69.9243856,92.5147308 L69.9608679,92.1758846 C69.9800691,91.9489615 70.024616,91.7312692 70.0269201,91.5016538 C70.0230799,91.2747308 70.0196237,91.0447308 70.0157834,90.8135769 C70.0203917,90.7012692 70.0104071,90.5855 69.9896697,90.4662692 L69.9420507,90.1151154 C69.9113287,89.8820385 69.8909754,89.6528077 69.8210829,89.4108846 C69.7653994,89.1751154 69.7097158,88.9378077 69.6532642,88.6993462 C69.5745392,88.4589615 69.4954301,88.2170385 69.415937,87.9747308 L69.2980415,87.6143462 L69.1478879,87.2470385 L68.8498848,86.5162692 C68.6171659,86.0258846 68.3936636,85.5285769 68.1436636,85.0489615 L67.7615591,84.3358846 L67.572619,83.9824231 L67.352957,83.5908846 C67.2066436,83.3301154 67.0607143,83.0701154 66.9147849,82.8105 L66.805722,82.6162692 L66.7511905,82.5189615 L66.7373656,82.4947308 C66.7189324,82.4485769 66.7554147,82.5439615 66.7492704,82.5301154 L66.7423579,82.5193462 L66.7154762,82.4755 L66.5008065,82.1262692 C65.8832949,81.1447308 65.2761521,80.1781923 64.6882104,79.2431923 C64.072619,78.2431923 63.4750768,77.2031923 62.9412826,76.1243462 C62.4051843,75.0466538 61.9604839,73.8878077 61.6171659,72.7378077 C61.5438172,72.4362692 61.4720046,72.1408846 61.4017281,71.8520385 C61.368318,71.7062692 61.3352919,71.5616538 61.3026498,71.4193462 C61.2796083,71.2685769 61.2561828,71.1201154 61.2335253,70.9728077 C61.1916667,70.6762692 61.1509601,70.3874231 61.1114055,70.1066538 C61.0806836,69.8208846 61.0749232,69.5289615 61.0607143,69.2508846 C61.0514977,68.9712692 61.0353687,68.7016538 61.040361,68.4358846 C61.056874,68.1666538 61.072619,67.9070385 61.08798,67.6574231 C61.1087174,67.4058846 61.1286866,67.1643462 61.1475038,66.9339615 C61.1951229,66.6608846 61.2461982,66.3993462 61.2984255,66.1512692 C61.3510369,65.9028077 61.4051843,65.6674231 61.4593318,65.4466538 C61.5069508,65.2605 61.5514977,65.0855 61.5933564,64.9231923 C61.6440476,64.7255 61.6870584,64.5574231 61.7216206,64.4208846 C61.7915131,64.1481923 61.8283794,64.0028077 61.8283794,64.0028077 L72.1044931,68.3028077 Z" id="Fill-36" fill="#653732" mask="url(#mask-2)"></path>
                    <path d="M17.1889785,65.2258846 C17.1889785,65.2258846 17.1114055,65.3547308 16.9666283,65.5955 C16.8940476,65.7162692 16.8045699,65.8651154 16.6997312,66.0397308 C16.6244624,66.1670385 16.6475038,66.1228077 16.6329109,66.1335769 C16.6202381,66.1351154 16.6067972,66.1366538 16.5925883,66.1381923 C16.5695469,66.1405 16.5449693,66.1428077 16.5196237,66.1451154 C16.4923579,66.1981923 16.4635561,66.2531923 16.4339862,66.3108846 C16.4017281,66.3697308 16.3652458,66.4316538 16.3245392,66.4974231 C16.2915131,66.5670385 16.2715438,66.6493462 16.2385177,66.7305 C16.2108679,66.8143462 16.1670891,66.8951154 16.1405914,66.9935769 C16.118318,67.0970385 16.0952765,67.2031923 16.071467,67.3124231 C16.0580261,67.3681923 16.0442012,67.4251154 16.0296083,67.4824231 C16.0238479,67.5462692 16.0177035,67.6112692 16.0115591,67.6766538 C15.9965822,67.8105 15.9816052,67.9478077 15.9662442,68.0878077 C15.9531874,68.6889615 15.9727727,69.4085769 16.1133257,70.2581923 C16.2515745,71.1078077 16.4670123,72.0631923 16.744278,73.1028077 C17.0499616,74.2081923 17.3656298,75.3501154 17.6862903,76.5105 L17.8084101,76.9731923 L17.8237711,77.0308846 L17.8276114,77.0451154 C17.8249232,77.0401154 17.8648618,77.1435769 17.8491167,77.1062692 L17.8552611,77.1335769 L17.8798387,77.2420385 L17.9286098,77.4597308 C17.993894,77.7501154 18.0591782,78.0408846 18.1244624,78.3328077 L18.2227727,78.7708846 L18.322619,79.2585769 L18.5177035,80.2305 C18.6402074,80.8789615 18.727381,81.5297308 18.8210829,82.1758846 C18.852573,82.5089615 18.884063,82.8408846 18.915553,83.1724231 L18.9589478,83.6651154 L18.9720046,84.1739615 C19.0472734,85.4993462 18.8971198,86.8939615 18.5968126,88.1735769 C18.5031106,88.4916538 18.4101767,88.8070385 18.3183948,89.1197308 C18.2173963,89.4266538 18.0706989,89.7197308 17.9493472,90.0097308 C17.8855991,90.1531923 17.822235,90.2958846 17.759255,90.4378077 C17.6870584,90.5751154 17.6041091,90.7055 17.5273041,90.8370385 C17.3713902,91.0955 17.2170123,91.3505 17.0645545,91.6024231 C16.8875192,91.8305 16.712404,92.0555 16.540361,92.2770385 C16.3675499,92.4951154 16.2051075,92.7135769 16.0111751,92.8943462 C15.6325269,93.2628077 15.3038018,93.6481923 14.9224654,93.9355 C14.5491935,94.2308846 14.2204685,94.5424231 13.8637097,94.7751154 C13.5161674,95.0143462 13.1862903,95.2412692 12.8763825,95.4543462 C12.2358295,95.8408846 11.6832181,96.1708846 11.2197005,96.4243462 C10.2822965,96.9043462 9.74696621,97.1785769 9.74696621,97.1785769 C9.74696621,97.1785769 10.1786098,96.7643462 10.9339862,96.0401154 C11.2995776,95.6693462 11.7258449,95.2024231 12.2054916,94.6747308 C12.4278418,94.3978077 12.6644009,94.1031923 12.9136329,93.7928077 C13.1697773,93.4916538 13.3729263,93.1289615 13.6167819,92.7835769 C13.8710061,92.4428077 14.039977,92.0366538 14.2573349,91.6531923 C14.3717742,91.4635769 14.4435868,91.2520385 14.524616,91.0443462 C14.6044931,90.8389615 14.6855223,90.6305 14.7677035,90.4193462 C14.8206989,90.2039615 14.8748464,89.9855 14.9293779,89.7643462 C14.9554916,89.6551154 14.9881336,89.5481923 15.008871,89.4378077 L15.0453533,89.0989615 C15.0645545,88.8720385 15.1091014,88.6543462 15.1114055,88.4247308 C15.1075653,88.1978077 15.1041091,87.9678077 15.1002688,87.7366538 C15.1048771,87.6243462 15.0948925,87.5085769 15.0741551,87.3893462 L15.0265361,87.0381923 C14.9958141,86.8051154 14.9754608,86.5758846 14.9055684,86.3339615 C14.8498848,86.0981923 14.7942012,85.8608846 14.7377496,85.6224231 C14.6590246,85.3820385 14.5799155,85.1401154 14.5004224,84.8978077 L14.3825269,84.5374231 L14.2323733,84.1701154 L13.9343702,83.4393462 C13.7016513,82.9489615 13.478149,82.4516538 13.228149,81.9720385 L12.8460445,81.2589615 L12.6571045,80.9055 L12.4378264,80.5139615 C12.291129,80.2531923 12.1451997,79.9931923 11.9992704,79.7335769 L11.8902074,79.5393462 L11.8356759,79.4420385 L11.821851,79.4178077 C11.8034178,79.3716538 11.8399002,79.4670385 11.8337558,79.4531923 L11.8268433,79.4424231 L11.7999616,79.3985769 L11.5852919,79.0493462 C10.9677803,78.0678077 10.3606375,77.1012692 9.77269585,76.1662692 C9.15710445,75.1662692 8.55956221,74.1262692 8.02576805,73.0474231 C7.48966974,71.9697308 7.04496928,70.8108846 6.70165131,69.6608846 C6.62830261,69.3593462 6.55649002,69.0639615 6.48621352,68.7751154 C6.4531874,68.6293462 6.41977727,68.4847308 6.38713518,68.3424231 C6.3640937,68.1916538 6.3406682,68.0431923 6.31801075,67.8958846 C6.27615207,67.5993462 6.23544547,67.3105 6.19589094,67.0297308 C6.16516897,66.7439615 6.1594086,66.4520385 6.14519969,66.1739615 C6.1359831,65.8943462 6.11985407,65.6247308 6.12484639,65.3589615 C6.14135945,65.0897308 6.15710445,64.8301154 6.17246544,64.5805 C6.19320276,64.3289615 6.21317204,64.0874231 6.23198925,63.8570385 C6.27960829,63.5839615 6.33068356,63.3224231 6.38291091,63.0743462 C6.43552227,62.8258846 6.48966974,62.5905 6.5438172,62.3697308 C6.59143625,62.1835769 6.6359831,62.0085769 6.67784178,61.8462692 C6.72853303,61.6485769 6.77154378,61.4805 6.80610599,61.3439615 C6.87599846,61.0712692 6.91286482,60.9258846 6.91286482,60.9258846 L17.1889785,65.2258846 Z" id="Fill-37" fill="#653732" mask="url(#mask-2)"></path>
                    <path d="M54.1657834,81.5376538 L56.0859063,85.0953462 L51.4776114,86.4415 L49.909639,81.1911154 C49.909639,81.1911154 52.6400538,81.1668846 54.1657834,81.5376538" id="Fill-38" fill="#6EA2A2" mask="url(#mask-2)"></path>
                    <path d="M33.7200461,81.8064231 L32.5460829,85.6068077 L38.9327957,86.4414231 L40.500768,80.9125769 C40.500768,80.9125769 37.0241935,80.9241154 33.7200461,81.8064231" id="Fill-39" fill="#6EA2A2" mask="url(#mask-2)"></path>
                    <path d="M21.3956221,184.806885 C21.3956221,184.806885 15.5000768,186.749962 17.5830261,192.089962 C19.6659754,197.429962 23.5999232,199.953808 23.9501536,196.123808 C24.3,192.293808 23.8691244,189.138423 25.9175115,187.536885 L21.3956221,184.806885 Z" id="Fill-40" fill="#FFD2B5" mask="url(#mask-2)"></path>
                    <path d="M21.5567204,188.036692 C21.377381,187.898231 21.1980415,187.759 21.019086,187.620538 C20.5908986,187.346692 20.1861367,187.033615 19.8044163,186.680538 L19.7422043,186.632462 C19.7314516,186.618615 19.7203149,186.605154 19.7091782,186.591692 C19.660023,186.544769 19.6093318,186.500923 19.5605607,186.452462 C19.425768,186.277462 19.2909754,186.102846 19.1561828,185.927846 C17.8435868,186.808615 16.2429724,188.654 17.5832181,192.089769 C19.6657834,197.430154 23.6001152,199.953615 23.9499616,196.123615 C24.205722,193.327077 24.0490399,190.893615 24.7410522,189.158615 C23.6231567,188.991692 22.5609447,188.620154 21.5567204,188.036692" id="Fill-41" fill="#FFD2B5" mask="url(#mask-2)"></path>
                    <path d="M21.3956221,184.806885 C21.3956221,184.806885 15.5000768,186.749962 17.5830261,192.089962 C19.6659754,197.429962 23.5999232,199.953808 23.9501536,196.123808 C24.3,192.293808 23.8691244,189.138423 25.9175115,187.536885 L21.3956221,184.806885 Z" id="Fill-42" fill="#FFBB9F" mask="url(#mask-2)"></path>
                    <path d="M21.5567204,188.036692 C21.377381,187.898231 21.1980415,187.759 21.019086,187.620538 C20.5908986,187.346692 20.1861367,187.033615 19.8044163,186.680538 L19.7422043,186.632462 C19.7314516,186.618615 19.7203149,186.605154 19.7091782,186.591692 C19.660023,186.544769 19.6093318,186.500923 19.5605607,186.452462 C19.425768,186.277462 19.2909754,186.102846 19.1561828,185.927846 C17.8435868,186.808615 16.2429724,188.654 17.5832181,192.089769 C19.6657834,197.430154 23.6001152,199.953615 23.9499616,196.123615 C24.205722,193.327077 24.0490399,190.893615 24.7410522,189.158615 C23.6231567,188.991692 22.5609447,188.620154 21.5567204,188.036692" id="Fill-43" fill="#FFD2B5" mask="url(#mask-2)"></path>
                    <path d="M19.8486559,185.510769 C19.8486559,185.510769 17.6677803,185.642692 15.9108679,189.650385 L12.9035714,194.054231 L13.4262289,194.505 L16.2672427,191.839231 C16.2672427,191.839231 15.9976575,193.901154 16.5867512,196.094231 C16.9999616,197.631538 17.7645545,199.511154 19.4100998,200.512308 C20.9738479,201.463846 22.1816052,201.311538 22.9561828,200.900385 C24.2472734,200.214231 24.5287634,198.034615 24.0951997,195.691154 C24.0951997,195.691154 23.9112519,198.143462 21.9162442,197.598077 C19.0441244,196.812308 18.7211598,192.473077 18.756106,189.288462 C18.7706989,187.968846 19.8486559,185.510769 19.8486559,185.510769" id="Fill-44" fill="#CF7A60" mask="url(#mask-2)"></path>
                    <path d="M28.9964286,138.040462 C28.9964286,138.040462 29.910023,149.936615 29.4530338,157.257385 C28.9964286,164.578154 20.627765,185.002 20.627765,185.002 L26.2552611,187.747 C26.2552611,187.747 44.5210061,161.779308 47.4945084,149.882385 C47.4945084,149.882385 51.752573,174.615077 51.3819892,191.922769 L57.3205453,191.922769 C57.3205453,191.922769 66.7794547,162.236615 61.7541091,137.528923 L28.9964286,138.040462 Z" id="Fill-45" fill="#9D4A65" mask="url(#mask-2)"></path>
                    <path d="M44.565169,150.869077 C39.3858295,150.852923 34.377381,150.209846 29.5359831,148.953308 C29.6051075,151.821385 29.6066436,154.797538 29.4530338,157.257154 C28.9964286,164.578308 20.627765,185.001769 20.627765,185.001769 L26.2552611,187.747154 C26.2552611,187.747154 43.908871,162.648692 47.33053,150.496769 C46.4084869,150.621 45.486828,150.745231 44.565169,150.869077" id="Fill-46" fill="#D14D86" mask="url(#mask-2)"></path>
                    <path d="M60.4496928,148.731538 C56.1639785,149.308077 51.8778802,149.885 47.5921659,150.461923 C48.2235023,154.273846 51.719278,176.171154 51.3817204,191.922308 L57.3206605,191.922308 C57.3206605,191.922308 64.3529186,169.848846 63.0675883,147.927692 C62.2039171,148.210769 61.3337174,148.483462 60.4496928,148.731538" id="Fill-47" fill="#D14D86" mask="url(#mask-2)"></path>
                    <path d="M40.5201613,117.928885 C41.1226959,117.848115 41.7390553,117.813885 42.3646313,117.838115 C42.6507296,117.739654 43.0716206,117.550423 43.2682412,117.4635 C44.0455069,117.028885 44.797043,116.555423 45.5293779,116.042346 C46.5961982,115.294269 47.7064132,114.613115 48.7578725,113.840808 C48.9502688,113.699269 49.8780722,112.969269 49.8738479,112.980808 C50.0009601,112.876577 50.1299923,112.775038 50.2563364,112.670423 C52.3819124,110.896192 54.4433564,109.035038 56.421851,107.097346 C57.3726959,106.165808 58.3323733,105.237346 59.2121736,104.236577 C59.4779186,103.934654 60.6799155,102.407346 60.781682,102.320808 C61.1799155,101.756577 61.563172,101.186577 61.9310676,100.610423 C62.5094086,99.1692692 63.0946621,97.7304231 63.6833717,96.2938846 C64.7720814,93.6381154 65.8711598,90.9804231 67.0566436,88.3642692 C64.3051075,86.6869615 61.1956605,85.2888846 57.4940476,84.6146538 L35.6046467,84.2300385 C32.7766897,84.6769615 29.4871352,85.3565769 26.3396697,87.4304231 C27.1756912,88.7488846 27.6353687,90.2619615 27.4567972,91.7942692 C27.4145545,92.1585 27.3861367,92.5238846 27.3799923,92.8892692 C27.4495008,93.2696538 27.5428187,93.7731154 27.6177035,94.0196538 C27.7820661,94.5592692 27.9625576,95.0938846 28.1576421,95.6227308 C28.3231567,96.0135 28.5355223,96.5123462 28.6269201,96.7038846 C29.7056452,98.9661923 30.7555684,101.253885 31.8550307,103.509654 C32.2428955,104.1735 32.6303763,104.838115 33.0213134,105.501577 C35.1541859,109.120038 37.2210061,112.790038 39.421851,116.372731 C39.7847542,116.894269 40.1499616,117.413115 40.5201613,117.928885" id="Fill-48" fill="#FFD2B5" mask="url(#mask-2)"></path>
                    <path d="M52.712596,86.1325769 C57.1423195,91.9556538 32.9702765,92.3671923 36.0155914,86.8210385 C39.0609063,81.2760385 35.5463134,75.3841154 35.5463134,75.3841154 L52.1572965,75.3841154 C52.1572965,75.3841154 49.9441628,81.6956538 52.712596,86.1325769" id="Fill-49" fill="#FFBB9F" mask="url(#mask-2)"></path>
                    <path d="M51.5109831,82.8924615 C46.728341,83.9447692 41.9456989,84.0820769 37.1630568,83.299 C37.0117512,84.449 36.6626728,85.6424615 36.0155914,86.8209231 C32.9702765,92.3666923 57.1423195,91.9555385 52.712596,86.1324615 C52.0793395,85.1178462 51.7091398,84.0051538 51.5109831,82.8924615" id="Fill-50" fill="#FFD2B5" mask="url(#mask-2)"></path>
                    <path d="M14.8928955,139.406885 C14.8736943,139.338038 14.853725,139.269577 14.8291475,139.203038 C14.6398233,138.689577 14.0634025,138.534962 13.6670891,138.811115 C13.6524962,138.548423 13.6240783,138.284962 13.5776114,138.021115 C13.4885177,137.519192 12.9259217,137.374577 12.5084869,137.444577 C12.2953533,137.480346 12.0922043,137.536885 11.8940476,137.603038 C11.6989631,137.449192 11.4416667,137.382654 11.1728495,137.473423 C11.1355991,137.485731 11.1006528,137.502269 11.0637865,137.515346 C10.9969662,137.471885 10.9263057,137.440346 10.853341,137.420346 C11.0457373,137.289962 11.2657834,137.180346 11.5211598,137.098423 C11.9589478,136.958423 11.8187788,136.373038 11.3975038,136.345731 C9.24504608,136.204577 9.07684332,140.149192 5.79612135,141.449962 C5.42438556,141.470346 5.05533794,141.494962 4.70856375,141.629192 C4.17822581,141.834577 4.1609447,142.441885 4.60180492,142.748808 C5.04036098,143.054192 5.58529186,143.097269 6.12523041,143.054577 C5.89788786,143.1715 5.63099078,143.274962 5.36140553,143.358423 C4.86217358,143.431115 4.36639785,143.500346 3.90249616,143.728038 C3.50042243,143.925346 3.55610599,144.572654 3.93821045,144.751885 C4.33260369,144.937269 5.24658218,144.968808 5.84258833,144.951115 C5.82569124,144.956115 5.22469278,145.107269 4.42438556,145.323808 C3.49043779,145.576115 3.90403226,146.330731 4.64251152,146.4415 C5.86370968,146.624962 6.71470814,146.133808 7.04266513,146.056885 C5.93859447,146.681885 5.98659754,147.6915 7.40403226,147.450731 C8.55841014,147.254577 9.56109831,146.603808 10.3932796,145.822269 C10.9274578,145.321115 11.6098694,144.571115 11.9816052,143.776115 C12.0799155,143.729577 11.5165515,145.536885 11.1402074,146.487654 C10.9213134,147.0415 11.5346006,147.490731 11.9846774,147.0865 C13.0549539,146.126115 13.8203149,144.861885 14.2669355,143.498423 C14.4977343,142.793808 14.7892089,141.970346 14.9270737,141.151885 C15.05649,140.968808 15.1782258,140.787269 15.2842166,140.610731 C15.5668587,140.140731 15.3095622,139.628808 14.8928955,139.406885" id="Fill-51" fill="#FFBB9F" mask="url(#mask-2)"></path>
                    <path d="M9.76897081,139.464346 C9.4655914,139.1605 9.18678955,138.835885 8.93179724,138.494731 C8.22788018,139.592808 7.37073733,140.8255 5.79623656,141.450115 C5.42450077,141.4705 5.05545315,141.494731 4.70867896,141.629346 C4.17834101,141.834731 4.16067588,142.441654 4.60192012,142.748962 C5.04047619,143.054346 5.58502304,143.097038 6.12534562,143.054731 C5.89800307,143.171654 5.63110599,143.274731 5.36113671,143.358577 C4.86228879,143.430885 4.36651306,143.5005 3.90261137,143.728192 C3.50053763,143.9255 3.55583717,144.572423 3.93794163,144.752038 C4.33271889,144.937038 5.24669739,144.968577 5.84270353,144.951269 C5.82542243,144.955885 5.22480799,145.107423 4.42450077,145.323577 C3.490553,145.576269 3.90376344,146.3305 4.64262673,146.441654 C5.86382488,146.624731 6.71482335,146.133962 7.04278034,146.057038 C5.93870968,146.682038 5.98671275,147.691654 7.40376344,147.450885 C8.55852535,147.254731 9.56082949,146.603577 10.3933948,145.822038 C10.927573,145.320885 11.6096006,144.570885 11.9817204,143.776269 C12.0800307,143.729731 11.5166667,145.536654 11.1403226,146.487808 C10.9210445,147.041269 11.5347158,147.4905 11.9847926,147.086269 C13.0550691,146.125885 13.8204301,144.861654 14.2670507,143.498192 C14.4179724,143.037423 14.5915515,142.523962 14.7344086,141.996269 C12.8676651,141.697038 11.1168971,140.814731 9.76897081,139.464346" id="Fill-52" fill="#FFD2B5" mask="url(#mask-2)"></path>
                    <g id="Group-56" mask="url(#mask-2)" fill="#000000">
                        <g transform="translate(9.984639, 76.153846)">
                            <path d="M90.7120584,17.8838077 C90.7120584,17.8838077 91.0142857,11.8395769 94.1682796,10.5761154 C96.0884025,9.80688462 100.312673,8.65303846 100.312673,14.2299615 C100.312673,19.8068846 95.8963902,20.7684231 95.8963902,20.7684231 L90.7120584,17.8838077 Z" id="Fill-53"></path>
                            <path d="M23.9754224,8.98996154 C17.0480031,10.5953462 8.7311828,15.2703462 6.03456221,36.5376538 C3.56682028,56.0007308 0.274193548,61.5376538 0.274193548,61.5376538 C0.274193548,61.5376538 3.34639017,64.6145769 6.41858679,66.5376538 C13.7150538,54.2299615 14.0990783,33.8453462 17.5552995,25.7684231 C17.5552995,25.7684231 18.7073733,43.4607308 11.7949309,69.2299615 C11.7949309,69.2299615 37.0261137,76.9222692 61.6609063,69.2299615 C61.6609063,69.2299615 58.2619048,45.7684231 55.5737327,23.0761154 C60.9500768,28.4607308 70.2357911,34.8618846 83.9915515,29.9991923 C90.5199693,27.6915 95.8963134,20.7684231 95.8963134,20.7684231 L90.5199693,16.9222692 C90.5199693,16.9222692 83.1947005,24.9991923 75.1447773,23.4607308 C67.09447,21.9222692 61.3341014,11.1530385 48.6612903,8.84534615 L45.0771889,8.46073077 L44.6931644,17.0503462 L41.4416283,17.1234231 L39.0606759,22.4349615 L35.0925499,17.1788077 C35.0925499,17.1788077 30.4973118,16.9349615 29.0810292,15.6403462 C26.0422427,12.8615 24.3824885,8.89573077 23.9754224,8.98996154" id="Fill-54"></path>
                            <path d="M108.187826,2.15665385 L97.8510369,15.3970385 C97.8510369,15.3970385 96.2942012,17.0543462 95.1563364,16.1320385 C93.9097926,15.1212692 95.2711598,13.7062692 95.2711598,13.7062692 L105.767704,0.261269231 L108.187826,2.15665385 Z" id="Fill-55"></path>
                        </g>
                    </g>
                    <path d="M99.5446237,93.6530385 C99.5446237,93.6530385 99.846851,87.6088077 103.000845,86.3453462 C104.920968,85.5761154 109.145238,84.4222692 109.145238,89.9991923 C109.145238,95.5761154 104.728955,96.5376538 104.728955,96.5376538 L99.5446237,93.6530385 Z" id="Fill-57" fill="#FFD2B5" mask="url(#mask-2)"></path>
                    <path d="M32.8079877,84.7591923 C25.8805684,86.3645769 17.5637481,91.0395769 14.8671275,112.306885 C12.3993856,131.769962 9.10675883,137.306885 9.10675883,137.306885 C9.10675883,137.306885 12.1789555,140.383808 15.2511521,142.306885 C22.547619,129.999192 22.9316436,109.614577 26.3878648,101.537654 C26.3878648,101.537654 27.5399386,119.229962 20.6274962,144.999192 C20.6274962,144.999192 45.858679,152.6915 70.4934716,144.999192 C70.4934716,144.999192 67.09447,121.537654 64.406298,98.8453462 C69.7826421,104.229962 79.0683564,110.631115 92.8241167,105.768423 C99.3525346,103.460731 104.728879,96.5376538 104.728879,96.5376538 L99.3525346,92.6915 C99.3525346,92.6915 92.0272657,100.768423 83.9773425,99.2299615 C75.9270353,97.6915 70.1666667,86.9222692 57.4938556,84.6145769 L53.9097542,84.2299615 L53.5257296,92.8195769 L50.2741935,92.8926538 L47.8932412,98.2041923 L43.9251152,92.9480385 C43.9251152,92.9480385 39.3298771,92.7041923 37.9135945,91.4095769 C34.874808,88.6307308 33.2150538,84.6649615 32.8079877,84.7591923" id="Fill-58" fill="#A8E0DB" mask="url(#mask-2)"></path>
                    <path d="M117.020392,77.9258846 L106.683602,91.1662692 C106.683602,91.1662692 105.126767,92.8235769 103.988902,91.9012692 C102.742358,90.8905 104.103725,89.4755 104.103725,89.4755 L114.600269,76.0305 L117.020392,77.9258846 Z" id="Fill-59" fill="#FFFFFF" mask="url(#mask-2)"></path>
                    <path d="M83.1086406,40.3449231 C83.4796083,59.7426154 76.2987327,66.1803077 64.9028034,74.5306923 C60.849808,77.5006923 58.0471966,80.1272308 52.2442012,81.018 C46.5675499,81.8895385 41.2369048,78.7926154 32.5464286,77.1787692 C15.5948157,74.0303077 3.57484639,58.4799231 3.57484639,40.3449231 C3.57484639,18.3483846 21.3789939,0.516846154 43.3417435,0.516846154 C65.3044931,0.516846154 82.6877496,18.3522308 83.1086406,40.3449231" id="Fill-60" fill="#FFD2B5" mask="url(#mask-2)"></path>
                    <path d="M64.546851,51.0334231 C62.2872504,51.9599615 58.2926267,55.0272692 61.5664363,57.3034231 C64.8406298,59.5791923 69.5088326,56.0791923 70.7054531,54.3388077 C72.2980031,52.0241923 69.1463134,49.1476538 64.546851,51.0334231" id="Fill-61" fill="#FFBB9F" mask="url(#mask-2)"></path>
                    <path d="M43.6806836,58.2868462 C46.1050307,54.8887692 41.0900538,53.2768462 38.5378264,53.1622308 C33.3423579,52.9283846 31.249424,56.8745385 33.6330645,58.5937692 C35.4253072,59.8853077 41.2563364,61.6849231 43.6806836,58.2868462" id="Fill-62" fill="#FFBB9F" mask="url(#mask-2)"></path>
                    <path d="M64.8995392,48.9298846 C66.4102919,48.4852692 67.974808,48.6464231 69.3089094,49.3006538 C69.1695084,49.0064231 68.9978495,48.7287308 68.7912442,48.4787308 C68.7317204,48.3906538 68.6679724,48.3056538 68.6015361,48.2229615 C68.6387865,48.2052692 68.6756528,48.1891154 68.7125192,48.1695 C68.8242704,48.0991154 68.9390937,48.0260385 69.0562212,47.9518077 C69.1748848,47.8864231 69.2705069,47.7764231 69.3753456,47.6914231 C69.4774962,47.5998846 69.5807988,47.5145 69.6591398,47.4033462 C69.740169,47.3006538 69.8200461,47.1998846 69.897619,47.1014231 C69.9694316,47.0018077 70.0170507,46.8891154 70.0715822,46.7929615 C70.1230415,46.6933462 70.1733487,46.6033462 70.2132873,46.5175769 C70.3242704,46.1575769 70.3983871,45.9175769 70.3983871,45.9175769 C70.3983871,45.9175769 70.2520737,46.1121923 70.0327957,46.4045 C69.9690476,46.4683462 69.8945469,46.5321923 69.8208141,46.6006538 C69.7436252,46.6660385 69.6741167,46.7445 69.584255,46.8048846 C69.4936252,46.8610385 69.3995392,46.9191154 69.303533,46.9779615 C69.2155914,47.0425769 69.1072965,47.0791154 69.0043779,47.1198846 C68.8991551,47.1552692 68.8096774,47.2125769 68.7002304,47.2260385 C68.5976959,47.2483462 68.4997696,47.2702692 68.4022273,47.2918077 C68.3043011,47.3041154 68.2132873,47.3037308 68.1261137,47.3106538 C68.0350998,47.3221923 67.9721198,47.3137308 67.911828,47.3021923 C67.8511521,47.2964231 67.8165899,47.2906538 67.7678187,47.2860385 C67.694086,47.2702692 67.6710445,47.2568077 67.6184332,47.2456538 C67.5435484,47.2295 67.5327957,47.2191154 67.5324117,47.2137308 C67.5297235,47.2102692 67.4387097,47.2075769 67.4321813,47.2041154 C67.4198925,47.2241154 67.3288786,47.2464231 67.3158218,47.2660385 C67.3288786,47.2464231 67.3380952,47.2241154 67.350384,47.2041154 C67.4529186,47.0371923 67.5362519,46.8560385 67.6065284,46.6752692 C67.677573,46.4671923 67.7336406,46.2606538 67.7597542,46.0629615 C67.788172,45.8660385 67.7939324,45.6818077 67.7793395,45.5264231 C67.7670507,45.3710385 67.7359447,45.2460385 67.7082949,45.1633462 C67.6771889,45.0825769 67.6595238,45.0360385 67.6595238,45.0360385 C67.6595238,45.0360385 67.6564516,45.0845 67.6510753,45.1698846 C67.6410906,45.2529615 67.6188172,45.3695 67.5696621,45.4998846 C67.522427,45.6306538 67.4506144,45.7745 67.3569124,45.9160385 C67.2658986,46.0587308 67.1503072,46.1952692 67.0297235,46.3202692 C66.9018433,46.4395 66.7789555,46.5495 66.647619,46.6245 C66.5201229,46.7045 66.4110599,46.7506538 66.3165899,46.7718077 C66.271659,46.7787308 66.2440092,46.7898846 66.2355607,46.7748846 C66.209831,46.7683462 66.2804916,46.7537308 66.2182796,46.7568077 C66.1990783,46.7575769 66.1879416,46.7568077 66.1794931,46.7556538 L65.9951613,46.7998846 C65.8327189,46.7825769 65.6691244,46.7764231 65.5051459,46.7798846 C65.5124424,46.7298846 65.5208909,46.6795 65.5258833,46.6298846 C65.5281874,46.5218077 65.5301075,46.4145 65.5320276,46.3087308 C65.5389401,46.2056538 65.5228111,46.1014231 65.5109063,46.0033462 C65.4963134,45.9052692 65.4924731,45.8129615 65.4690476,45.7252692 C65.443702,45.6395 65.3484639,45.5971923 65.3269585,45.5221923 C65.2981567,45.3921923 65.1825653,45.3195 65.1276498,45.2533462 C65.1407066,45.3275769 65.178341,45.4110385 65.1510753,45.5279615 C65.1407066,45.5960385 65.147235,45.6602692 65.1353303,45.7387308 C65.1218894,45.8145 65.0961598,45.8902692 65.0723502,45.9702692 C65.0454685,46.0510385 65.0281874,46.1298846 64.9828725,46.2095 C64.94447,46.2868077 64.9072197,46.3648846 64.8684332,46.4445 C64.8204301,46.5171923 64.7728111,46.5891154 64.725192,46.6606538 C64.6825653,46.7325769 64.6299539,46.7956538 64.5754224,46.8529615 C64.5516129,46.8787308 64.5316436,46.9010385 64.5093702,46.9256538 C62.4801843,47.4821923 61.5312596,48.5148846 61.0266513,49.3898846 C60.6802611,49.9964231 60.5070661,50.6495 60.5086022,51.3475769 C60.5324117,51.5195 60.5554531,51.6921923 60.5784946,51.8645 C61.3242704,50.8229615 62.7451613,49.5633462 64.8995392,48.9298846" id="Fill-63" fill="#454C53" mask="url(#mask-2)"></path>
                    <path d="M67.533781,47.2101923 C67.533781,47.2101923 67.532281,47.2121923 67.532781,47.2146923 L67.533781,47.2151923 L67.533781,47.2101923 Z" id="Fill-64" fill="#454C53" mask="url(#mask-2)"></path>
                    <path d="M65.0433564,45.1088846 C65.0433564,45.1088846 65.0728564,45.1643846 65.1253564,45.2623846 C65.1313564,45.2738846 65.1438564,45.2853846 65.1528564,45.2963846 C65.1498564,45.2758846 65.1453564,45.2553846 65.1463564,45.2348846 C65.1408564,45.1233846 65.0433564,45.1088846 65.0433564,45.1088846" id="Fill-65" fill="#454C53" mask="url(#mask-2)"></path>
                    <path d="M66.1786972,46.7393462 C66.1786972,46.7393462 66.1471972,46.7548462 66.1836972,46.7603462 L66.1836972,46.7593462 L66.1786972,46.7393462 Z" id="Fill-66" fill="#454C53" mask="url(#mask-2)"></path>
                    <path d="M32.956874,50.5490769 C33.0379032,50.6252308 33.1170123,50.7183077 33.2153226,50.7925385 C33.3186252,50.8625385 33.424616,50.9352308 33.5325269,51.0094615 C33.6408218,51.0917692 33.7648618,51.1425385 33.8889017,51.1990769 C34.0148618,51.2490769 34.1385177,51.3252308 34.2717742,51.3525385 C34.4050307,51.3879231 34.5371352,51.4233077 34.6642473,51.4571538 C34.7053379,51.4648462 34.7460445,51.4694615 34.7863671,51.4748462 C34.7479647,51.5740769 34.7118664,51.6740769 34.6815284,51.776 C34.5590246,52.0763846 34.4779954,52.3921538 34.4322965,52.7152308 C35.5106375,51.6917692 36.955722,51.0702308 38.5302227,51.0429231 C40.7752304,51.0029231 42.5067972,51.7806154 43.5286866,52.551 C43.4998848,52.3802308 43.4703149,52.2086923 43.4415131,52.0375385 C43.2345238,51.3706154 42.8750768,50.7990769 42.362788,50.3240769 C41.6208525,49.6398462 40.4077189,48.9379231 38.3051843,49.0136923 C38.2763825,48.996 38.2502688,48.981 38.2199309,48.9636923 C38.1508065,48.9252308 38.081298,48.8806154 38.018702,48.8252308 C37.9518817,48.7706154 37.8839094,48.7156154 37.816321,48.6606154 C37.7552611,48.5963846 37.6945853,48.5333077 37.6342934,48.4702308 C37.5682412,48.4079231 37.5225422,48.3367692 37.4730031,48.2683077 C37.4265361,48.1990769 37.3693164,48.1321538 37.3339862,48.0636923 C37.2990399,47.9925385 37.2663978,47.9256154 37.2356759,47.8636923 C37.1623272,47.7375385 37.1561828,47.6221538 37.127381,47.5398462 C37.1058756,47.4567692 37.0935868,47.4086923 37.0935868,47.4086923 C37.0935868,47.4086923 37.0847542,47.4567692 37.0690092,47.5398462 C37.0601767,47.6236923 37.0133257,47.7529231 37.0267665,47.9033077 C37.0283026,47.981 37.0298387,48.0652308 37.0317588,48.1544615 C37.0352151,48.2448462 37.0594086,48.3336923 37.0743856,48.4325385 C37.0924347,48.5298462 37.1081797,48.6340769 37.1446621,48.7302308 C37.1784562,48.8306154 37.2126344,48.9325385 37.2464286,49.0344615 C37.2660138,49.0802308 37.2886713,49.1252308 37.3105607,49.1706154 C37.1531106,49.2163846 36.9995008,49.2686923 36.8497312,49.3340769 L36.8481951,49.3217692 C36.8481951,49.3217692 36.8013441,49.3348462 36.7183948,49.3571538 C36.6581029,49.3725385 36.6822965,49.3686923 36.660023,49.3829231 C36.6561828,49.3990769 36.6031874,49.3983077 36.5582565,49.4052308 C36.4618664,49.4136923 36.331682,49.4029231 36.1865207,49.3648462 C36.0390553,49.3321538 35.8827573,49.2640769 35.7253072,49.1883077 C35.5732335,49.1052308 35.4188556,49.0102308 35.2894393,48.901 C35.1577189,48.7936923 35.0451997,48.6779231 34.9610983,48.5679231 C34.8754608,48.4575385 34.8186252,48.3533077 34.784447,48.2763846 C34.753341,48.1967692 34.7356759,48.1513846 34.7356759,48.1513846 C34.7356759,48.1513846 34.7326037,48.201 34.7268433,48.2879231 C34.7253072,48.3752308 34.7326037,48.5036923 34.7671659,48.6552308 C34.800192,48.8079231 34.8597158,48.9821538 34.9457373,49.1613846 C35.0294547,49.3429231 35.1450461,49.5229231 35.2744624,49.6998462 C35.3958141,49.8513846 35.5286866,49.9998462 35.6769201,50.1279231 C35.6945853,50.1436923 35.7099462,50.161 35.7283794,50.1763846 C35.8946621,50.3175385 36.0774578,50.4336923 36.2594854,50.516 C36.3543395,50.5536923 36.4280722,50.5906154 36.5417435,50.6121538 C36.4280722,50.5906154 36.3539555,50.5556154 36.2591014,50.5175385 C36.0766897,50.4356154 35.8946621,50.3183077 35.7283794,50.1771538 C35.7099462,50.1621538 35.6945853,50.1440769 35.6769201,50.1283077 C35.6715438,50.1336923 35.6661674,50.1390769 35.6611751,50.1440769 L35.659639,50.1402308 C35.659639,50.1402308 35.6054916,50.1706154 35.5114055,50.2236923 C35.4641705,50.2502308 35.4073349,50.2817692 35.3416667,50.3186923 C35.2967358,50.3383077 35.2456605,50.3598462 35.1895929,50.3840769 C35.1358295,50.4129231 35.0678571,50.4429231 34.9779954,50.4594615 C34.8923579,50.4786923 34.8009601,50.5083077 34.7034178,50.5244615 C34.6043395,50.5340769 34.5014209,50.5429231 34.3973502,50.5525385 C34.2886713,50.5717692 34.1857527,50.5444615 34.0740015,50.5421538 C33.9641705,50.5340769 33.8489631,50.5317692 33.7456605,50.4967692 C33.6365975,50.4686923 33.5290707,50.4417692 33.425768,50.4156154 C33.3224654,50.3844615 33.2329877,50.3306154 33.1396697,50.2913846 C33.0482719,50.2479231 32.9580261,50.2090769 32.878533,50.1675385 C32.5820661,49.9540769 32.3842934,49.8117692 32.3842934,49.8117692 C32.3842934,49.8117692 32.5267665,50.0190769 32.7395161,50.3290769 C32.8032642,50.3994615 32.878533,50.4702308 32.956874,50.5490769" id="Fill-67" fill="#454C53" mask="url(#mask-2)"></path>
                    <path d="M50.7379032,62.3352692 C52.4790707,62.7768077 54.6065668,62.3891154 54.3001152,60.0698846 C53.9944316,57.7502692 51.8980415,54.9914231 52.0017281,55.9471923 C52.4448925,60.0345 48.9971198,61.8937308 50.7379032,62.3352692" id="Fill-68" fill="#FFBB9F" mask="url(#mask-2)"></path>
                    <path d="M50.9252304,69.6750769 C50.9252304,69.6750769 49.7839094,68.037 47.1567972,68.6450769 C46.2673963,68.8512308 44.8303763,70.1158462 42.5534946,69.1262308 C42.5534946,69.1262308 44.5093318,72.1285385 47.6621736,73.2608462 C51.1990399,74.5308462 53.6349078,74.4058462 56.528533,70.9981538 C56.528533,70.9981538 54.9916667,67.2554615 50.9252304,69.6750769" id="Fill-69" fill="#D14D86" mask="url(#mask-2)"></path>
                    <path d="M66.4635945,15.1274615 C66.4635945,15.1274615 67.1663594,28.9120769 53.0238863,33.9986154 C36.6982335,39.8709231 25.6705837,37.8609231 22.1640553,45.7682308 C17.1602151,57.0501538 18.2773425,70.349 24.9801075,78.7170769 C31.6824885,87.0851538 27.0284946,99.4863077 22.1640553,103.076308 C22.1640553,103.076308 31.2001536,94.3336154 19.9355607,81.4036154 C11.7016897,71.9528462 -1.38970814,56.0247692 1.68248848,38.204 C5.06382488,18.5916923 28.2950077,-9.616 65.8533794,7.05053846 C65.8533794,7.05053846 94.3602919,17.2743846 87.4478495,52.554 C80.5354071,87.8336154 66.3399386,87.9474615 72.0296467,99.7424615 C72.0296467,99.7424615 65.3864055,92.6916923 71.2550691,80.3836154 C77.1241167,68.0759231 85.4820276,61.0470769 80.7915515,44.4405385 C77.3718126,32.3320769 65.9605223,25.8966923 66.4635945,15.1274615" id="Fill-70" fill="#000000" mask="url(#mask-2)"></path>
                    <path d="M65.3115207,13.2043846 C65.3115207,13.2043846 66.0142857,26.989 51.8718126,32.0755385 C35.5461598,37.9478462 24.51851,35.9378462 21.0119816,43.8451538 C16.0081413,55.1270769 17.1252688,68.4259231 23.8280338,76.794 C30.5304147,85.1620769 25.8764209,97.5632308 21.0119816,101.153231 C21.0119816,101.153231 30.0480799,92.4105385 18.7834869,79.4805385 C10.549616,70.0297692 -2.54178187,54.1016923 0.530414747,36.2809231 C3.91175115,16.6686154 27.1429339,-11.5390769 64.7013057,5.12746154 C64.7013057,5.12746154 93.2082181,15.3513077 86.2957757,50.6309231 C79.3833333,85.9105385 65.1878648,86.0243846 70.877573,97.8193846 C70.877573,97.8193846 64.2343318,90.7686154 70.1029954,78.4605385 C75.972043,66.1528462 84.3299539,59.124 79.6394777,42.5174615 C76.2197389,30.409 64.8084485,23.9736154 65.3115207,13.2043846" id="Fill-71" fill="#864943" mask="url(#mask-2)"></path>
                    <path d="M0.324539171,37.6655769 C-1.77761137,53.0736538 7.15748848,71.1528846 3.60257296,81.4828846 C1.4577957,87.7155769 1.81071429,107.050192 15.1256144,109.101346 C15.1256144,109.101346 5.9109447,99.3578846 10.7711598,88.3321154 C14.6175499,79.6055769 16.6597926,76.5375 11.0273041,65.5117308" id="Fill-72" fill="#864943" mask="url(#mask-2)"></path>
                    <path d="M85.934639,52.4118846 C84.7599078,60.2553462 81.6627496,69.8841923 83.9918587,77.8722692 C87.6811828,90.5265 87.8321045,100.511885 79.6393241,103.332269 C79.6393241,103.332269 84.652381,95.7130385 80.8121352,86.1530385 C76.9718894,76.5930385 78.2211214,66.1530385 78.2211214,66.1530385" id="Fill-73" fill="#864943" mask="url(#mask-2)"></path>
                    <path d="M9.23360215,64.0857308 C11.5223886,71.6784231 15.9697773,80.7607308 14.8119432,89.0015 C12.9782258,102.055731 14.262404,111.959192 22.7750768,113.569962 C22.7750768,113.569962 16.7201613,106.752269 19.1479647,96.7380385 C21.575384,86.7245769 18.840361,76.5730385 18.840361,76.5730385" id="Fill-74" fill="#000000" mask="url(#mask-2)"></path>
                    <path d="M8.08152842,62.1626538 C10.3703149,69.7553462 14.8177035,78.8376538 13.6598694,87.0784231 C11.8261521,100.132654 13.1103303,110.036115 21.6230031,111.646885 C21.6230031,111.646885 15.5680876,104.829192 17.9958909,94.8149615 C20.4233103,84.8015 17.6882873,74.6499615 17.6882873,74.6499615" id="Fill-75" fill="#864943" mask="url(#mask-2)"></path>
                    <path d="M33.6844086,81.9222692 C33.5588326,81.2407308 30.612212,84.0376538 29.8441628,86.1530385 C29.8441628,86.1530385 34.5572965,93.0761154 41.3649002,99.8711154 L43.925192,92.9480385 C43.925192,92.9480385 34.8430108,88.2045769 33.6844086,81.9222692" id="Fill-76" fill="#89CDC5" mask="url(#mask-2)"></path>
                    <path d="M50.0695853,93.2045769 C50.0695853,93.2045769 53.1986175,97.6915 53.909831,98.9734231 C53.909831,98.9734231 57.2297235,90.3599615 58.2700461,84.7688077 L54.1659754,81.5376538 C54.1659754,81.5376538 53.2566052,88.4607308 50.0695853,93.2045769" id="Fill-77" fill="#89CDC5" mask="url(#mask-2)"></path>
                    <polygon id="Fill-78" fill="#6EA2A2" mask="url(#mask-2)" points="41.4637481 99.6036923 44.2452381 94.7106154 47.9894777 98.4606154 43.9253456 92.9479231"></polygon>
                    <polygon id="Fill-79" fill="#6EA2A2" mask="url(#mask-2)" points="47.7013057 98.1722692 50.0695853 93.2045769 53.909831 98.9734231 50.2431644 94.9030385"></polygon>
                    <path d="M49.3174731,99.4865 C49.3174731,100.008423 48.8946621,100.431885 48.3735407,100.431885 C47.8520353,100.431885 47.4292243,100.008423 47.4292243,99.4865 C47.4292243,98.9645769 47.8520353,98.5411154 48.3735407,98.5411154 C48.8946621,98.5411154 49.3174731,98.9645769 49.3174731,99.4865" id="Fill-80" fill="#000000" mask="url(#mask-2)"></path>
                    <path d="M48.9334485,99.1018846 C48.9334485,99.6238077 48.5106375,100.047269 47.9895161,100.047269 C47.4680108,100.047269 47.0451997,99.6238077 47.0451997,99.1018846 C47.0451997,98.5799615 47.4680108,98.1565 47.9895161,98.1565 C48.5106375,98.1565 48.9334485,98.5799615 48.9334485,99.1018846" id="Fill-81" fill="#FFFFFF" mask="url(#mask-2)"></path>
                    <path d="M49.7014977,103.332654 C49.7014977,103.854577 49.2786866,104.278038 48.7575653,104.278038 C48.2360599,104.278038 47.8132488,103.854577 47.8132488,103.332654 C47.8132488,102.810731 48.2360599,102.387269 48.7575653,102.387269 C49.2786866,102.387269 49.7014977,102.810731 49.7014977,103.332654" id="Fill-82" fill="#000000" mask="url(#mask-2)"></path>
                    <path d="M49.3174731,102.948038 C49.3174731,103.469962 48.8946621,103.893423 48.3735407,103.893423 C47.8520353,103.893423 47.4292243,103.469962 47.4292243,102.948038 C47.4292243,102.426115 47.8520353,102.002654 48.3735407,102.002654 C48.8946621,102.002654 49.3174731,102.426115 49.3174731,102.948038" id="Fill-83" fill="#FFFFFF" mask="url(#mask-2)"></path>
                    <path d="M50.0855223,107.178808 C50.0855223,107.700731 49.6627112,108.124192 49.1415899,108.124192 C48.6200845,108.124192 48.1972734,107.700731 48.1972734,107.178808 C48.1972734,106.656885 48.6200845,106.233423 49.1415899,106.233423 C49.6627112,106.233423 50.0855223,106.656885 50.0855223,107.178808" id="Fill-84" fill="#000000" mask="url(#mask-2)"></path>
                    <path d="M49.7014977,106.794192 C49.7014977,107.316115 49.2786866,107.739577 48.7575653,107.739577 C48.2360599,107.739577 47.8132488,107.316115 47.8132488,106.794192 C47.8132488,106.272269 48.2360599,105.848808 48.7575653,105.848808 C49.2786866,105.848808 49.7014977,106.272269 49.7014977,106.794192" id="Fill-85" fill="#FFFFFF" mask="url(#mask-2)"></path>
                </g>
                <text id="" font-family="HiraginoSans-W3, Hiragino Sans" font-size="20" font-weight="300" letter-spacing="-0.0943662003" fill="#FFFFFF">
                    <tspan x="113.91129" y="60.548077"></tspan>
                </text>
            </g>
        </g>
    </g>
</svg>