<?xml version="1.0" standalone="no"?>
<!DOCTYPE svg PUBLIC "-//W3C//DTD SVG 20010904//EN"
 "http://www.w3.org/TR/2001/REC-SVG-20010904/DTD/svg10.dtd">
<svg version="1.0" xmlns="http://www.w3.org/2000/svg"
 width="291.000000pt" height="291.000000pt" viewBox="0 0 291.000000 291.000000"
 preserveAspectRatio="xMidYMid meet">
<metadata>
Created by potrace 1.11, written by Peter Selinger 2001-2013
</metadata>
<g transform="translate(0.000000,291.000000) scale(0.100000,-0.100000)"
fill="#000000" stroke="none">
<path d="M1169 1806 c-2 -2 -53 -7 -114 -10 -60 -3 -132 -9 -160 -12 -27 -3
-59 -7 -70 -8 -11 0 -23 -5 -27 -11 -5 -6 -8 -5 -8 3 0 9 -5 10 -17 4 -10 -5
-28 -8 -40 -7 -13 1 -23 -3 -23 -8 0 -6 -2 -8 -5 -5 -3 3 -25 2 -48 -3 -23 -4
-69 -11 -102 -14 -33 -4 -63 -9 -68 -12 -8 -5 -55 -15 -74 -16 -7 0 -13 -5
-13 -10 0 -6 -3 -8 -6 -4 -3 3 -23 -1 -45 -8 -22 -8 -43 -14 -47 -15 -38 -2
-215 -83 -244 -112 -10 -10 -18 -23 -18 -29 0 -5 -4 -8 -9 -5 -15 10 -33 -50
-26 -85 4 -17 21 -46 39 -63 48 -49 224 -133 261 -127 3 1 19 -6 35 -14 17 -9
30 -13 30 -9 0 4 6 1 13 -5 8 -6 17 -8 20 -4 4 3 13 0 22 -7 9 -7 18 -10 21
-7 3 3 17 2 30 -3 13 -5 45 -12 71 -15 27 -4 55 -8 63 -10 8 -2 38 -7 65 -11
28 -3 54 -9 60 -12 5 -3 27 -6 50 -7 22 0 46 -4 53 -8 7 -5 12 -3 12 3 0 6 5
8 13 3 15 -9 20 -10 132 -20 119 -11 805 -10 920 0 50 5 105 9 123 9 17 0 32
3 32 7 0 3 19 6 43 6 23 0 49 3 58 7 9 4 42 10 75 13 32 4 61 8 64 10 3 2 30
6 60 10 88 11 312 80 395 121 43 22 92 56 112 78 32 35 35 43 30 83 -6 55 -51
100 -150 149 -67 33 -91 42 -197 70 -30 8 -62 17 -70 21 -20 8 -18 8 -71 16
-83 14 -104 17 -134 24 -16 3 -43 7 -60 9 -16 2 -46 6 -65 9 -19 4 -52 7 -72
8 -21 1 -38 4 -38 7 0 3 -15 6 -33 6 -17 1 -61 5 -97 8 -71 8 -745 18 -751 12z
m561 -60 c85 -4 175 -9 200 -11 166 -13 193 -16 199 -19 4 -3 25 -7 47 -10 22
-4 51 -9 64 -12 14 -3 36 -7 50 -10 55 -10 126 -26 140 -31 8 -4 18 -6 22 -5
13 3 173 -73 205 -97 61 -46 67 -126 12 -175 -16 -14 -29 -23 -29 -19 0 4 -6
0 -12 -8 -13 -16 -145 -76 -183 -83 -11 -3 -54 -12 -95 -21 -41 -10 -84 -19
-95 -20 -11 -2 -20 -4 -20 -5 0 -2 -11 -4 -25 -5 -14 -2 -36 -6 -50 -9 -14 -3
-47 -8 -74 -11 -28 -3 -52 -7 -54 -10 -2 -2 -14 0 -27 5 -12 5 -26 5 -31 0
-30 -29 -777 -32 -1014 -5 -19 3 -68 7 -109 10 -40 3 -77 7 -81 10 -7 4 -30 9
-98 19 -7 1 -18 8 -25 15 -10 10 -5 11 24 6 34 -6 37 -4 52 27 8 18 25 67 37
108 12 41 27 81 32 88 6 6 7 12 3 12 -4 0 -2 7 6 16 13 16 19 1 50 -116 2 -8
7 -17 10 -20 3 -3 14 -36 26 -75 15 -53 25 -71 39 -72 11 -1 40 -5 66 -8 l46
-5 7 40 c4 25 11 38 17 33 6 -3 8 -1 4 5 -3 6 -1 23 6 39 6 15 12 30 12 33 4
19 29 108 33 120 8 21 12 33 15 50 2 8 6 20 10 25 7 11 38 120 43 150 3 19 -2
21 -54 19 -70 -2 -71 -2 -69 -11 0 -5 -2 -15 -6 -23 -3 -9 -15 -52 -26 -95
-26 -103 -28 -110 -30 -110 -1 0 -3 -7 -5 -15 -2 -8 -8 -28 -15 -45 -9 -23
-13 -26 -20 -15 -6 8 -10 23 -10 33 0 9 -5 17 -11 17 -5 0 -8 4 -5 8 3 5 -1
21 -9 36 -8 15 -19 46 -25 69 -24 91 -26 94 -83 92 -63 -1 -74 -7 -82 -45 -4
-17 -11 -30 -16 -30 -5 0 -8 -3 -7 -7 1 -5 -11 -50 -27 -101 -24 -76 -31 -90
-42 -79 -8 7 -15 22 -17 33 -2 10 -9 31 -15 47 -6 15 -8 27 -5 27 4 0 -1 11
-10 25 -9 14 -14 25 -10 25 4 0 2 6 -4 13 -5 6 -13 26 -16 43 -6 25 -12 32
-32 32 -13 0 -24 -4 -24 -8 0 -4 -16 -11 -35 -14 -34 -7 -44 -22 -26 -42 5 -5
18 -36 30 -68 12 -33 32 -82 45 -110 13 -28 29 -68 36 -89 6 -21 18 -41 26
-44 21 -8 17 -22 -6 -18 -195 38 -348 128 -355 210 -6 57 78 128 198 168 9 4
19 5 21 4 1 -1 9 3 17 9 8 7 48 19 90 29 99 21 110 23 137 24 13 1 21 4 19 9
-3 4 11 7 31 8 21 0 55 4 77 8 92 16 148 21 420 32 88 4 161 7 162 8 4 3 191
-2 333 -8z"/>
<path d="M1517 1734 c-1 -1 -26 -5 -55 -8 -53 -6 -162 -52 -162 -67 0 -4 -8
-10 -18 -14 -37 -11 -69 -113 -66 -205 2 -36 4 -72 7 -80 6 -24 31 -74 42 -86
26 -27 105 -69 150 -79 97 -22 348 -3 330 24 -3 5 6 12 19 15 46 12 116 104
116 155 0 13 -12 16 -70 16 -61 0 -72 -3 -85 -23 -9 -12 -13 -22 -10 -22 3 0
-6 -12 -20 -27 -24 -27 -29 -28 -118 -28 -149 1 -208 42 -203 140 3 56 14 84
45 117 70 75 247 68 293 -10 16 -27 20 -28 85 -26 37 1 71 2 75 3 12 2 -14 76
-39 109 -29 39 -102 78 -163 87 -40 6 -149 12 -153 9z"/>
<path d="M1962 1681 c-10 -8 -9 -422 1 -439 5 -7 11 -10 15 -8 4 2 41 7 82 11
41 4 86 9 100 10 14 2 59 6 100 10 41 3 78 9 82 11 11 7 58 17 86 18 12 1 22
4 22 9 0 4 7 7 15 7 40 0 124 64 134 101 4 15 3 55 -2 80 -8 42 -77 99 -144
119 -24 7 -43 16 -43 20 0 4 -6 7 -12 8 -7 0 -24 3 -38 6 -14 3 -41 9 -60 12
-19 4 -44 8 -55 10 -66 12 -271 23 -283 15z m364 -114 c7 -2 18 -7 25 -13 8
-5 26 -16 41 -23 29 -15 36 -27 44 -76 7 -47 -41 -94 -88 -86 -5 0 -8 -2 -8
-7 0 -8 -4 -8 -123 -16 -42 -3 -81 -7 -86 -11 -6 -3 -10 46 -10 119 l-1 125
47 3 c40 2 103 -4 159 -15z"/>
</g>
</svg>
