<?xml version="1.0" standalone="no"?>
<!DOCTYPE svg PUBLIC "-//W3C//DTD SVG 20010904//EN"
 "http://www.w3.org/TR/2001/REC-SVG-20010904/DTD/svg10.dtd">
<svg version="1.0" xmlns="http://www.w3.org/2000/svg"
 width="578.000000pt" height="578.000000pt" viewBox="0 0 578.000000 578.000000"
 preserveAspectRatio="xMidYMid meet">
<metadata>
Created by potrace 1.11, written by Peter Selinger 2001-2013
</metadata>
<g transform="translate(0.000000,578.000000) scale(0.100000,-0.100000)"
fill="#000000" stroke="none">
<path d="M2147 5722 c-25 -3 -28 -7 -23 -30 3 -15 21 -121 41 -237 19 -115 37
-221 40 -235 2 -13 7 -42 10 -65 3 -22 8 -47 10 -55 4 -14 11 -59 20 -125 3
-16 7 -41 10 -55 3 -14 8 -41 11 -60 2 -19 9 -57 14 -85 5 -27 12 -63 14 -80
14 -86 27 -163 31 -190 3 -16 10 -57 16 -90 6 -33 12 -71 15 -85 2 -14 8 -52
14 -85 5 -33 12 -71 15 -85 3 -14 7 -38 10 -55 5 -36 15 -100 20 -125 2 -10 7
-40 10 -67 4 -26 11 -64 15 -83 5 -19 11 -57 15 -84 3 -27 8 -52 9 -55 2 -3 7
-26 10 -51 3 -25 8 -56 11 -70 7 -43 36 -214 41 -245 2 -16 6 -41 9 -55 3 -14
7 -39 10 -56 13 -83 46 -272 51 -299 3 -16 6 -661 7 -1432 l0 -1403 144 0 143
0 0 1398 c0 1167 2 1409 14 1472 8 41 17 93 20 115 4 23 8 50 10 62 3 11 7 38
11 59 7 45 9 58 30 179 9 50 18 106 21 125 3 19 11 71 19 115 8 44 17 98 20
120 3 22 10 60 15 85 9 43 17 92 25 155 4 25 16 96 20 115 0 3 4 27 9 53 4 27
9 59 12 70 2 12 20 117 39 232 20 116 38 221 40 235 2 14 16 95 30 180 14 85
28 166 31 180 2 14 7 41 10 60 3 19 7 46 10 60 2 14 7 41 10 60 10 68 14 89
29 160 3 14 7 45 10 70 3 25 10 68 15 95 6 28 12 64 15 80 2 17 7 48 10 70 l6
40 -123 -2 c-68 -1 -135 -2 -149 -2 -25 -1 -27 -4 -44 -108 -9 -60 -19 -117
-21 -128 -2 -10 -6 -35 -9 -55 -3 -20 -7 -47 -10 -60 -3 -14 -7 -38 -10 -55
-3 -16 -7 -43 -10 -60 -3 -16 -8 -48 -11 -70 -3 -22 -10 -60 -15 -84 -5 -24
-12 -63 -15 -86 -3 -24 -7 -54 -10 -66 -2 -13 -7 -37 -9 -54 -3 -16 -7 -41
-10 -55 -3 -14 -8 -41 -11 -60 -2 -19 -9 -57 -14 -85 -6 -27 -12 -66 -14 -85
-2 -19 -13 -87 -25 -150 -11 -63 -23 -128 -25 -145 -14 -89 -52 -311 -60 -350
-2 -11 -7 -42 -11 -70 -5 -27 -9 -53 -11 -57 -1 -5 -2 -16 -4 -25 -3 -25 -16
22 -24 83 -3 27 -8 58 -10 70 -2 12 -16 90 -30 175 -14 85 -28 164 -30 175 -3
12 -7 39 -10 60 -4 22 -13 80 -22 129 -8 50 -17 101 -19 115 -2 14 -16 93 -30
175 -14 83 -28 161 -30 175 -39 236 -83 494 -90 530 -2 14 -9 54 -15 90 -15
94 -21 124 -25 129 -5 5 -228 7 -268 3z"/>
</g>
</svg>
